<?xml version="1.0" encoding="utf-8" standalone="no"?>
<!DOCTYPE svg PUBLIC "-//W3C//DTD SVG 1.1//EN"
  "http://www.w3.org/Graphics/SVG/1.1/DTD/svg11.dtd">
<!-- Created with matplotlib (https://matplotlib.org/) -->
<svg height="345.6pt" version="1.1" viewBox="0 0 460.8 345.6" width="460.8pt" xmlns="http://www.w3.org/2000/svg" xmlns:xlink="http://www.w3.org/1999/xlink">
 <defs>
  <style type="text/css">
*{stroke-linecap:butt;stroke-linejoin:round;}
  </style>
 </defs>
 <g id="figure_1">
  <g id="patch_1">
   <path d="M 0 345.6 
L 460.8 345.6 
L 460.8 0 
L 0 0 
z
" style="fill:#ffffff;"/>
  </g>
  <g id="axes_1">
   <g id="patch_2">
    <path d="M 57.6 307.584 
L 414.72 307.584 
L 414.72 41.472 
L 57.6 41.472 
z
" style="fill:#ffffff;"/>
   </g>
   <g id="matplotlib.axis_1">
    <g id="xtick_1">
     <g id="line2d_1">
      <defs>
       <path d="M 0 0 
L 0 3.5 
" id="me7ba83854a" style="stroke:#000000;stroke-width:0.8;"/>
      </defs>
      <g>
       <use style="stroke:#000000;stroke-width:0.8;" x="73.832727" xlink:href="#me7ba83854a" y="307.584"/>
      </g>
     </g>
     <g id="text_1">
      <!-- 0 -->
      <defs>
       <path d="M 31.78125 66.40625 
Q 24.171875 66.40625 20.328125 58.90625 
Q 16.5 51.421875 16.5 36.375 
Q 16.5 21.390625 20.328125 13.890625 
Q 24.171875 6.390625 31.78125 6.390625 
Q 39.453125 6.390625 43.28125 13.890625 
Q 47.125 21.390625 47.125 36.375 
Q 47.125 51.421875 43.28125 58.90625 
Q 39.453125 66.40625 31.78125 66.40625 
z
M 31.78125 74.21875 
Q 44.046875 74.21875 50.515625 64.515625 
Q 56.984375 54.828125 56.984375 36.375 
Q 56.984375 17.96875 50.515625 8.265625 
Q 44.046875 -1.421875 31.78125 -1.421875 
Q 19.53125 -1.421875 13.0625 8.265625 
Q 6.59375 17.96875 6.59375 36.375 
Q 6.59375 54.828125 13.0625 64.515625 
Q 19.53125 74.21875 31.78125 74.21875 
z
" id="DejaVuSans-48"/>
      </defs>
      <g transform="translate(70.651477 322.182437)scale(0.1 -0.1)">
       <use xlink:href="#DejaVuSans-48"/>
      </g>
     </g>
    </g>
    <g id="xtick_2">
     <g id="line2d_2">
      <g>
       <use style="stroke:#000000;stroke-width:0.8;" x="114.618474" xlink:href="#me7ba83854a" y="307.584"/>
      </g>
     </g>
     <g id="text_2">
      <!-- 25 -->
      <defs>
       <path d="M 19.1875 8.296875 
L 53.609375 8.296875 
L 53.609375 0 
L 7.328125 0 
L 7.328125 8.296875 
Q 12.9375 14.109375 22.625 23.890625 
Q 32.328125 33.6875 34.8125 36.53125 
Q 39.546875 41.84375 41.421875 45.53125 
Q 43.3125 49.21875 43.3125 52.78125 
Q 43.3125 58.59375 39.234375 62.25 
Q 35.15625 65.921875 28.609375 65.921875 
Q 23.96875 65.921875 18.8125 64.3125 
Q 13.671875 62.703125 7.8125 59.421875 
L 7.8125 69.390625 
Q 13.765625 71.78125 18.9375 73 
Q 24.125 74.21875 28.421875 74.21875 
Q 39.75 74.21875 46.484375 68.546875 
Q 53.21875 62.890625 53.21875 53.421875 
Q 53.21875 48.921875 51.53125 44.890625 
Q 49.859375 40.875 45.40625 35.40625 
Q 44.1875 33.984375 37.640625 27.21875 
Q 31.109375 20.453125 19.1875 8.296875 
z
" id="DejaVuSans-50"/>
       <path d="M 10.796875 72.90625 
L 49.515625 72.90625 
L 49.515625 64.59375 
L 19.828125 64.59375 
L 19.828125 46.734375 
Q 21.96875 47.46875 24.109375 47.828125 
Q 26.265625 48.1875 28.421875 48.1875 
Q 40.625 48.1875 47.75 41.5 
Q 54.890625 34.8125 54.890625 23.390625 
Q 54.890625 11.625 47.5625 5.09375 
Q 40.234375 -1.421875 26.90625 -1.421875 
Q 22.3125 -1.421875 17.546875 -0.640625 
Q 12.796875 0.140625 7.71875 1.703125 
L 7.71875 11.625 
Q 12.109375 9.234375 16.796875 8.0625 
Q 21.484375 6.890625 26.703125 6.890625 
Q 35.15625 6.890625 40.078125 11.328125 
Q 45.015625 15.765625 45.015625 23.390625 
Q 45.015625 31 40.078125 35.4375 
Q 35.15625 39.890625 26.703125 39.890625 
Q 22.75 39.890625 18.8125 39.015625 
Q 14.890625 38.140625 10.796875 36.28125 
z
" id="DejaVuSans-53"/>
      </defs>
      <g transform="translate(108.255974 322.182437)scale(0.1 -0.1)">
       <use xlink:href="#DejaVuSans-50"/>
       <use x="63.623047" xlink:href="#DejaVuSans-53"/>
      </g>
     </g>
    </g>
    <g id="xtick_3">
     <g id="line2d_3">
      <g>
       <use style="stroke:#000000;stroke-width:0.8;" x="155.404221" xlink:href="#me7ba83854a" y="307.584"/>
      </g>
     </g>
     <g id="text_3">
      <!-- 50 -->
      <g transform="translate(149.041721 322.182437)scale(0.1 -0.1)">
       <use xlink:href="#DejaVuSans-53"/>
       <use x="63.623047" xlink:href="#DejaVuSans-48"/>
      </g>
     </g>
    </g>
    <g id="xtick_4">
     <g id="line2d_4">
      <g>
       <use style="stroke:#000000;stroke-width:0.8;" x="196.189968" xlink:href="#me7ba83854a" y="307.584"/>
      </g>
     </g>
     <g id="text_4">
      <!-- 75 -->
      <defs>
       <path d="M 8.203125 72.90625 
L 55.078125 72.90625 
L 55.078125 68.703125 
L 28.609375 0 
L 18.3125 0 
L 43.21875 64.59375 
L 8.203125 64.59375 
z
" id="DejaVuSans-55"/>
      </defs>
      <g transform="translate(189.827468 322.182437)scale(0.1 -0.1)">
       <use xlink:href="#DejaVuSans-55"/>
       <use x="63.623047" xlink:href="#DejaVuSans-53"/>
      </g>
     </g>
    </g>
    <g id="xtick_5">
     <g id="line2d_5">
      <g>
       <use style="stroke:#000000;stroke-width:0.8;" x="236.975715" xlink:href="#me7ba83854a" y="307.584"/>
      </g>
     </g>
     <g id="text_5">
      <!-- 100 -->
      <defs>
       <path d="M 12.40625 8.296875 
L 28.515625 8.296875 
L 28.515625 63.921875 
L 10.984375 60.40625 
L 10.984375 69.390625 
L 28.421875 72.90625 
L 38.28125 72.90625 
L 38.28125 8.296875 
L 54.390625 8.296875 
L 54.390625 0 
L 12.40625 0 
z
" id="DejaVuSans-49"/>
      </defs>
      <g transform="translate(227.431965 322.182437)scale(0.1 -0.1)">
       <use xlink:href="#DejaVuSans-49"/>
       <use x="63.623047" xlink:href="#DejaVuSans-48"/>
       <use x="127.246094" xlink:href="#DejaVuSans-48"/>
      </g>
     </g>
    </g>
    <g id="xtick_6">
     <g id="line2d_6">
      <g>
       <use style="stroke:#000000;stroke-width:0.8;" x="277.761462" xlink:href="#me7ba83854a" y="307.584"/>
      </g>
     </g>
     <g id="text_6">
      <!-- 125 -->
      <g transform="translate(268.217712 322.182437)scale(0.1 -0.1)">
       <use xlink:href="#DejaVuSans-49"/>
       <use x="63.623047" xlink:href="#DejaVuSans-50"/>
       <use x="127.246094" xlink:href="#DejaVuSans-53"/>
      </g>
     </g>
    </g>
    <g id="xtick_7">
     <g id="line2d_7">
      <g>
       <use style="stroke:#000000;stroke-width:0.8;" x="318.547209" xlink:href="#me7ba83854a" y="307.584"/>
      </g>
     </g>
     <g id="text_7">
      <!-- 150 -->
      <g transform="translate(309.003459 322.182437)scale(0.1 -0.1)">
       <use xlink:href="#DejaVuSans-49"/>
       <use x="63.623047" xlink:href="#DejaVuSans-53"/>
       <use x="127.246094" xlink:href="#DejaVuSans-48"/>
      </g>
     </g>
    </g>
    <g id="xtick_8">
     <g id="line2d_8">
      <g>
       <use style="stroke:#000000;stroke-width:0.8;" x="359.332956" xlink:href="#me7ba83854a" y="307.584"/>
      </g>
     </g>
     <g id="text_8">
      <!-- 175 -->
      <g transform="translate(349.789206 322.182437)scale(0.1 -0.1)">
       <use xlink:href="#DejaVuSans-49"/>
       <use x="63.623047" xlink:href="#DejaVuSans-55"/>
       <use x="127.246094" xlink:href="#DejaVuSans-53"/>
      </g>
     </g>
    </g>
    <g id="xtick_9">
     <g id="line2d_9">
      <g>
       <use style="stroke:#000000;stroke-width:0.8;" x="400.118703" xlink:href="#me7ba83854a" y="307.584"/>
      </g>
     </g>
     <g id="text_9">
      <!-- 200 -->
      <g transform="translate(390.574953 322.182437)scale(0.1 -0.1)">
       <use xlink:href="#DejaVuSans-50"/>
       <use x="63.623047" xlink:href="#DejaVuSans-48"/>
       <use x="127.246094" xlink:href="#DejaVuSans-48"/>
      </g>
     </g>
    </g>
    <g id="text_10">
     <!-- Generations -->
     <defs>
      <path d="M 59.515625 10.40625 
L 59.515625 29.984375 
L 43.40625 29.984375 
L 43.40625 38.09375 
L 69.28125 38.09375 
L 69.28125 6.78125 
Q 63.578125 2.734375 56.6875 0.65625 
Q 49.8125 -1.421875 42 -1.421875 
Q 24.90625 -1.421875 15.25 8.5625 
Q 5.609375 18.5625 5.609375 36.375 
Q 5.609375 54.25 15.25 64.234375 
Q 24.90625 74.21875 42 74.21875 
Q 49.125 74.21875 55.546875 72.453125 
Q 61.96875 70.703125 67.390625 67.28125 
L 67.390625 56.78125 
Q 61.921875 61.421875 55.765625 63.765625 
Q 49.609375 66.109375 42.828125 66.109375 
Q 29.4375 66.109375 22.71875 58.640625 
Q 16.015625 51.171875 16.015625 36.375 
Q 16.015625 21.625 22.71875 14.15625 
Q 29.4375 6.6875 42.828125 6.6875 
Q 48.046875 6.6875 52.140625 7.59375 
Q 56.25 8.5 59.515625 10.40625 
z
" id="DejaVuSans-71"/>
      <path d="M 56.203125 29.59375 
L 56.203125 25.203125 
L 14.890625 25.203125 
Q 15.484375 15.921875 20.484375 11.0625 
Q 25.484375 6.203125 34.421875 6.203125 
Q 39.59375 6.203125 44.453125 7.46875 
Q 49.3125 8.734375 54.109375 11.28125 
L 54.109375 2.78125 
Q 49.265625 0.734375 44.1875 -0.34375 
Q 39.109375 -1.421875 33.890625 -1.421875 
Q 20.796875 -1.421875 13.15625 6.1875 
Q 5.515625 13.8125 5.515625 26.8125 
Q 5.515625 40.234375 12.765625 48.109375 
Q 20.015625 56 32.328125 56 
Q 43.359375 56 49.78125 48.890625 
Q 56.203125 41.796875 56.203125 29.59375 
z
M 47.21875 32.234375 
Q 47.125 39.59375 43.09375 43.984375 
Q 39.0625 48.390625 32.421875 48.390625 
Q 24.90625 48.390625 20.390625 44.140625 
Q 15.875 39.890625 15.1875 32.171875 
z
" id="DejaVuSans-101"/>
      <path d="M 54.890625 33.015625 
L 54.890625 0 
L 45.90625 0 
L 45.90625 32.71875 
Q 45.90625 40.484375 42.875 44.328125 
Q 39.84375 48.1875 33.796875 48.1875 
Q 26.515625 48.1875 22.3125 43.546875 
Q 18.109375 38.921875 18.109375 30.90625 
L 18.109375 0 
L 9.078125 0 
L 9.078125 54.6875 
L 18.109375 54.6875 
L 18.109375 46.1875 
Q 21.34375 51.125 25.703125 53.5625 
Q 30.078125 56 35.796875 56 
Q 45.21875 56 50.046875 50.171875 
Q 54.890625 44.34375 54.890625 33.015625 
z
" id="DejaVuSans-110"/>
      <path d="M 41.109375 46.296875 
Q 39.59375 47.171875 37.8125 47.578125 
Q 36.03125 48 33.890625 48 
Q 26.265625 48 22.1875 43.046875 
Q 18.109375 38.09375 18.109375 28.8125 
L 18.109375 0 
L 9.078125 0 
L 9.078125 54.6875 
L 18.109375 54.6875 
L 18.109375 46.1875 
Q 20.953125 51.171875 25.484375 53.578125 
Q 30.03125 56 36.53125 56 
Q 37.453125 56 38.578125 55.875 
Q 39.703125 55.765625 41.0625 55.515625 
z
" id="DejaVuSans-114"/>
      <path d="M 34.28125 27.484375 
Q 23.390625 27.484375 19.1875 25 
Q 14.984375 22.515625 14.984375 16.5 
Q 14.984375 11.71875 18.140625 8.90625 
Q 21.296875 6.109375 26.703125 6.109375 
Q 34.1875 6.109375 38.703125 11.40625 
Q 43.21875 16.703125 43.21875 25.484375 
L 43.21875 27.484375 
z
M 52.203125 31.203125 
L 52.203125 0 
L 43.21875 0 
L 43.21875 8.296875 
Q 40.140625 3.328125 35.546875 0.953125 
Q 30.953125 -1.421875 24.3125 -1.421875 
Q 15.921875 -1.421875 10.953125 3.296875 
Q 6 8.015625 6 15.921875 
Q 6 25.140625 12.171875 29.828125 
Q 18.359375 34.515625 30.609375 34.515625 
L 43.21875 34.515625 
L 43.21875 35.40625 
Q 43.21875 41.609375 39.140625 45 
Q 35.0625 48.390625 27.6875 48.390625 
Q 23 48.390625 18.546875 47.265625 
Q 14.109375 46.140625 10.015625 43.890625 
L 10.015625 52.203125 
Q 14.9375 54.109375 19.578125 55.046875 
Q 24.21875 56 28.609375 56 
Q 40.484375 56 46.34375 49.84375 
Q 52.203125 43.703125 52.203125 31.203125 
z
" id="DejaVuSans-97"/>
      <path d="M 18.3125 70.21875 
L 18.3125 54.6875 
L 36.8125 54.6875 
L 36.8125 47.703125 
L 18.3125 47.703125 
L 18.3125 18.015625 
Q 18.3125 11.328125 20.140625 9.421875 
Q 21.96875 7.515625 27.59375 7.515625 
L 36.8125 7.515625 
L 36.8125 0 
L 27.59375 0 
Q 17.1875 0 13.234375 3.875 
Q 9.28125 7.765625 9.28125 18.015625 
L 9.28125 47.703125 
L 2.6875 47.703125 
L 2.6875 54.6875 
L 9.28125 54.6875 
L 9.28125 70.21875 
z
" id="DejaVuSans-116"/>
      <path d="M 9.421875 54.6875 
L 18.40625 54.6875 
L 18.40625 0 
L 9.421875 0 
z
M 9.421875 75.984375 
L 18.40625 75.984375 
L 18.40625 64.59375 
L 9.421875 64.59375 
z
" id="DejaVuSans-105"/>
      <path d="M 30.609375 48.390625 
Q 23.390625 48.390625 19.1875 42.75 
Q 14.984375 37.109375 14.984375 27.296875 
Q 14.984375 17.484375 19.15625 11.84375 
Q 23.34375 6.203125 30.609375 6.203125 
Q 37.796875 6.203125 41.984375 11.859375 
Q 46.1875 17.53125 46.1875 27.296875 
Q 46.1875 37.015625 41.984375 42.703125 
Q 37.796875 48.390625 30.609375 48.390625 
z
M 30.609375 56 
Q 42.328125 56 49.015625 48.375 
Q 55.71875 40.765625 55.71875 27.296875 
Q 55.71875 13.875 49.015625 6.21875 
Q 42.328125 -1.421875 30.609375 -1.421875 
Q 18.84375 -1.421875 12.171875 6.21875 
Q 5.515625 13.875 5.515625 27.296875 
Q 5.515625 40.765625 12.171875 48.375 
Q 18.84375 56 30.609375 56 
z
" id="DejaVuSans-111"/>
      <path d="M 44.28125 53.078125 
L 44.28125 44.578125 
Q 40.484375 46.53125 36.375 47.5 
Q 32.28125 48.484375 27.875 48.484375 
Q 21.1875 48.484375 17.84375 46.4375 
Q 14.5 44.390625 14.5 40.28125 
Q 14.5 37.15625 16.890625 35.375 
Q 19.28125 33.59375 26.515625 31.984375 
L 29.59375 31.296875 
Q 39.15625 29.25 43.1875 25.515625 
Q 47.21875 21.78125 47.21875 15.09375 
Q 47.21875 7.46875 41.1875 3.015625 
Q 35.15625 -1.421875 24.609375 -1.421875 
Q 20.21875 -1.421875 15.453125 -0.5625 
Q 10.6875 0.296875 5.421875 2 
L 5.421875 11.28125 
Q 10.40625 8.6875 15.234375 7.390625 
Q 20.0625 6.109375 24.8125 6.109375 
Q 31.15625 6.109375 34.5625 8.28125 
Q 37.984375 10.453125 37.984375 14.40625 
Q 37.984375 18.0625 35.515625 20.015625 
Q 33.0625 21.96875 24.703125 23.78125 
L 21.578125 24.515625 
Q 13.234375 26.265625 9.515625 29.90625 
Q 5.8125 33.546875 5.8125 39.890625 
Q 5.8125 47.609375 11.28125 51.796875 
Q 16.75 56 26.8125 56 
Q 31.78125 56 36.171875 55.265625 
Q 40.578125 54.546875 44.28125 53.078125 
z
" id="DejaVuSans-115"/>
     </defs>
     <g transform="translate(205.662344 335.860562)scale(0.1 -0.1)">
      <use xlink:href="#DejaVuSans-71"/>
      <use x="77.490234" xlink:href="#DejaVuSans-101"/>
      <use x="139.013672" xlink:href="#DejaVuSans-110"/>
      <use x="202.392578" xlink:href="#DejaVuSans-101"/>
      <use x="263.916016" xlink:href="#DejaVuSans-114"/>
      <use x="305.029297" xlink:href="#DejaVuSans-97"/>
      <use x="366.308594" xlink:href="#DejaVuSans-116"/>
      <use x="405.517578" xlink:href="#DejaVuSans-105"/>
      <use x="433.300781" xlink:href="#DejaVuSans-111"/>
      <use x="494.482422" xlink:href="#DejaVuSans-110"/>
      <use x="557.861328" xlink:href="#DejaVuSans-115"/>
     </g>
    </g>
   </g>
   <g id="matplotlib.axis_2">
    <g id="ytick_1">
     <g id="line2d_10">
      <defs>
       <path d="M 0 0 
L -3.5 0 
" id="mc2eb6f7ffc" style="stroke:#000000;stroke-width:0.8;"/>
      </defs>
      <g>
       <use style="stroke:#000000;stroke-width:0.8;" x="57.6" xlink:href="#mc2eb6f7ffc" y="281.18385"/>
      </g>
     </g>
     <g id="text_11">
      <!-- 0.100 -->
      <defs>
       <path d="M 10.6875 12.40625 
L 21 12.40625 
L 21 0 
L 10.6875 0 
z
" id="DejaVuSans-46"/>
      </defs>
      <g transform="translate(21.971875 284.983069)scale(0.1 -0.1)">
       <use xlink:href="#DejaVuSans-48"/>
       <use x="63.623047" xlink:href="#DejaVuSans-46"/>
       <use x="95.410156" xlink:href="#DejaVuSans-49"/>
       <use x="159.033203" xlink:href="#DejaVuSans-48"/>
       <use x="222.65625" xlink:href="#DejaVuSans-48"/>
      </g>
     </g>
    </g>
    <g id="ytick_2">
     <g id="line2d_11">
      <g>
       <use style="stroke:#000000;stroke-width:0.8;" x="57.6" xlink:href="#mc2eb6f7ffc" y="249.063754"/>
      </g>
     </g>
     <g id="text_12">
      <!-- 0.125 -->
      <g transform="translate(21.971875 252.862973)scale(0.1 -0.1)">
       <use xlink:href="#DejaVuSans-48"/>
       <use x="63.623047" xlink:href="#DejaVuSans-46"/>
       <use x="95.410156" xlink:href="#DejaVuSans-49"/>
       <use x="159.033203" xlink:href="#DejaVuSans-50"/>
       <use x="222.65625" xlink:href="#DejaVuSans-53"/>
      </g>
     </g>
    </g>
    <g id="ytick_3">
     <g id="line2d_12">
      <g>
       <use style="stroke:#000000;stroke-width:0.8;" x="57.6" xlink:href="#mc2eb6f7ffc" y="216.943658"/>
      </g>
     </g>
     <g id="text_13">
      <!-- 0.150 -->
      <g transform="translate(21.971875 220.742877)scale(0.1 -0.1)">
       <use xlink:href="#DejaVuSans-48"/>
       <use x="63.623047" xlink:href="#DejaVuSans-46"/>
       <use x="95.410156" xlink:href="#DejaVuSans-49"/>
       <use x="159.033203" xlink:href="#DejaVuSans-53"/>
       <use x="222.65625" xlink:href="#DejaVuSans-48"/>
      </g>
     </g>
    </g>
    <g id="ytick_4">
     <g id="line2d_13">
      <g>
       <use style="stroke:#000000;stroke-width:0.8;" x="57.6" xlink:href="#mc2eb6f7ffc" y="184.823562"/>
      </g>
     </g>
     <g id="text_14">
      <!-- 0.175 -->
      <g transform="translate(21.971875 188.62278)scale(0.1 -0.1)">
       <use xlink:href="#DejaVuSans-48"/>
       <use x="63.623047" xlink:href="#DejaVuSans-46"/>
       <use x="95.410156" xlink:href="#DejaVuSans-49"/>
       <use x="159.033203" xlink:href="#DejaVuSans-55"/>
       <use x="222.65625" xlink:href="#DejaVuSans-53"/>
      </g>
     </g>
    </g>
    <g id="ytick_5">
     <g id="line2d_14">
      <g>
       <use style="stroke:#000000;stroke-width:0.8;" x="57.6" xlink:href="#mc2eb6f7ffc" y="152.703465"/>
      </g>
     </g>
     <g id="text_15">
      <!-- 0.200 -->
      <g transform="translate(21.971875 156.502684)scale(0.1 -0.1)">
       <use xlink:href="#DejaVuSans-48"/>
       <use x="63.623047" xlink:href="#DejaVuSans-46"/>
       <use x="95.410156" xlink:href="#DejaVuSans-50"/>
       <use x="159.033203" xlink:href="#DejaVuSans-48"/>
       <use x="222.65625" xlink:href="#DejaVuSans-48"/>
      </g>
     </g>
    </g>
    <g id="ytick_6">
     <g id="line2d_15">
      <g>
       <use style="stroke:#000000;stroke-width:0.8;" x="57.6" xlink:href="#mc2eb6f7ffc" y="120.583369"/>
      </g>
     </g>
     <g id="text_16">
      <!-- 0.225 -->
      <g transform="translate(21.971875 124.382588)scale(0.1 -0.1)">
       <use xlink:href="#DejaVuSans-48"/>
       <use x="63.623047" xlink:href="#DejaVuSans-46"/>
       <use x="95.410156" xlink:href="#DejaVuSans-50"/>
       <use x="159.033203" xlink:href="#DejaVuSans-50"/>
       <use x="222.65625" xlink:href="#DejaVuSans-53"/>
      </g>
     </g>
    </g>
    <g id="ytick_7">
     <g id="line2d_16">
      <g>
       <use style="stroke:#000000;stroke-width:0.8;" x="57.6" xlink:href="#mc2eb6f7ffc" y="88.463273"/>
      </g>
     </g>
     <g id="text_17">
      <!-- 0.250 -->
      <g transform="translate(21.971875 92.262491)scale(0.1 -0.1)">
       <use xlink:href="#DejaVuSans-48"/>
       <use x="63.623047" xlink:href="#DejaVuSans-46"/>
       <use x="95.410156" xlink:href="#DejaVuSans-50"/>
       <use x="159.033203" xlink:href="#DejaVuSans-53"/>
       <use x="222.65625" xlink:href="#DejaVuSans-48"/>
      </g>
     </g>
    </g>
    <g id="ytick_8">
     <g id="line2d_17">
      <g>
       <use style="stroke:#000000;stroke-width:0.8;" x="57.6" xlink:href="#mc2eb6f7ffc" y="56.343176"/>
      </g>
     </g>
     <g id="text_18">
      <!-- 0.275 -->
      <g transform="translate(21.971875 60.142395)scale(0.1 -0.1)">
       <use xlink:href="#DejaVuSans-48"/>
       <use x="63.623047" xlink:href="#DejaVuSans-46"/>
       <use x="95.410156" xlink:href="#DejaVuSans-50"/>
       <use x="159.033203" xlink:href="#DejaVuSans-55"/>
       <use x="222.65625" xlink:href="#DejaVuSans-53"/>
      </g>
     </g>
    </g>
    <g id="text_19">
     <!-- Returns -->
     <defs>
      <path d="M 44.390625 34.1875 
Q 47.5625 33.109375 50.5625 29.59375 
Q 53.5625 26.078125 56.59375 19.921875 
L 66.609375 0 
L 56 0 
L 46.6875 18.703125 
Q 43.0625 26.03125 39.671875 28.421875 
Q 36.28125 30.8125 30.421875 30.8125 
L 19.671875 30.8125 
L 19.671875 0 
L 9.8125 0 
L 9.8125 72.90625 
L 32.078125 72.90625 
Q 44.578125 72.90625 50.734375 67.671875 
Q 56.890625 62.453125 56.890625 51.90625 
Q 56.890625 45.015625 53.6875 40.46875 
Q 50.484375 35.9375 44.390625 34.1875 
z
M 19.671875 64.796875 
L 19.671875 38.921875 
L 32.078125 38.921875 
Q 39.203125 38.921875 42.84375 42.21875 
Q 46.484375 45.515625 46.484375 51.90625 
Q 46.484375 58.296875 42.84375 61.546875 
Q 39.203125 64.796875 32.078125 64.796875 
z
" id="DejaVuSans-82"/>
      <path d="M 8.5 21.578125 
L 8.5 54.6875 
L 17.484375 54.6875 
L 17.484375 21.921875 
Q 17.484375 14.15625 20.5 10.265625 
Q 23.53125 6.390625 29.59375 6.390625 
Q 36.859375 6.390625 41.078125 11.03125 
Q 45.3125 15.671875 45.3125 23.6875 
L 45.3125 54.6875 
L 54.296875 54.6875 
L 54.296875 0 
L 45.3125 0 
L 45.3125 8.40625 
Q 42.046875 3.421875 37.71875 1 
Q 33.40625 -1.421875 27.6875 -1.421875 
Q 18.265625 -1.421875 13.375 4.4375 
Q 8.5 10.296875 8.5 21.578125 
z
M 31.109375 56 
z
" id="DejaVuSans-117"/>
     </defs>
     <g transform="translate(15.892187 194.032688)rotate(-90)scale(0.1 -0.1)">
      <use xlink:href="#DejaVuSans-82"/>
      <use x="69.419922" xlink:href="#DejaVuSans-101"/>
      <use x="130.943359" xlink:href="#DejaVuSans-116"/>
      <use x="170.152344" xlink:href="#DejaVuSans-117"/>
      <use x="233.53125" xlink:href="#DejaVuSans-114"/>
      <use x="274.628906" xlink:href="#DejaVuSans-110"/>
      <use x="338.007812" xlink:href="#DejaVuSans-115"/>
     </g>
    </g>
   </g>
   <g id="line2d_18">
    <path clip-path="url(#pc3f239e189)" d="M 73.832727 280.250226 
L 75.464157 281.732033 
L 77.095587 278.537155 
L 78.727017 277.757707 
L 80.358447 273.89473 
L 81.989877 280.361576 
L 83.621307 290.280262 
L 85.252736 277.834795 
L 86.884166 269.920403 
L 88.515596 286.263108 
L 90.147026 280.721321 
L 91.778456 279.162426 
L 93.409886 284.866955 
L 95.041316 280.68706 
L 96.672746 274.314433 
L 98.304175 282.048952 
L 99.935605 274.717004 
L 101.567035 288.198879 
L 103.198465 280.361576 
L 104.829895 270.879724 
L 106.461325 267.170923 
L 108.092755 278.597112 
L 109.724185 269.509266 
L 111.355614 279.102468 
L 112.987044 282.49435 
L 114.618474 283.479367 
L 116.249904 286.477242 
L 117.881334 275.042488 
L 119.512764 273.860468 
L 121.144194 263.453557 
L 122.775624 282.931184 
L 124.407053 274.896877 
L 126.038483 270.057449 
L 127.669913 278.78555 
L 129.301343 295.488 
L 130.932773 292.712824 
L 132.564203 279.659217 
L 134.195633 280.387272 
L 135.827063 282.023256 
L 137.458492 271.419341 
L 139.089922 272.447184 
L 140.721352 258.528476 
L 142.352782 267.513537 
L 143.984212 273.235197 
L 145.615642 272.618491 
L 148.878502 268.567077 
L 150.509931 267.042443 
L 152.141361 274.511436 
L 153.772791 264.078828 
L 155.404221 280.57571 
L 157.035651 275.025357 
L 158.667081 270.845462 
L 160.298511 287.119644 
L 161.929941 271.205207 
L 163.56137 259.513492 
L 166.82423 276.892606 
L 168.45566 268.515684 
L 170.08709 271.427907 
L 171.71852 265.800466 
L 173.34995 263.958913 
L 174.98138 259.025267 
L 176.61281 253.26078 
L 178.244239 251.025221 
L 179.875669 277.098174 
L 181.507099 268.995345 
L 183.138529 271.736259 
L 184.769959 240.669702 
L 186.401389 266.0146 
L 188.032819 262.185884 
L 189.664249 262.853982 
L 191.295678 257.046669 
L 192.927108 254.562715 
L 194.558538 251.187963 
L 196.189968 254.477061 
L 197.821398 248.318568 
L 199.452828 248.164391 
L 201.084258 254.871068 
L 202.715688 238.202879 
L 204.347117 246.031617 
L 205.978547 252.010238 
L 207.609977 254.314319 
L 209.241407 259.205139 
L 210.872837 261.295087 
L 212.504267 248.841055 
L 214.135697 233.431974 
L 215.767127 260.215852 
L 217.398556 251.110875 
L 219.029986 240.190042 
L 220.661416 211.03356 
L 222.292846 246.965241 
L 223.924276 225.688889 
L 225.555706 240.601179 
L 227.187136 240.172911 
L 228.818566 258.51991 
L 230.449995 218.750949 
L 232.081425 233.620412 
L 233.712855 232.455523 
L 235.344285 243.513402 
L 236.975715 245.911702 
L 238.607145 250.485604 
L 240.238575 247.52199 
L 241.870005 233.988722 
L 243.501434 222.71671 
L 245.132864 227.401961 
L 246.764294 233.491931 
L 248.395724 232.84953 
L 250.027154 239.993039 
L 251.658584 237.14934 
L 253.290014 231.855948 
L 254.921444 221.012203 
L 256.552873 224.763831 
L 258.184303 234.100072 
L 259.815733 235.855971 
L 261.447163 248.892447 
L 263.078593 244.369937 
L 264.710023 241.183624 
L 266.341453 235.48766 
L 267.972883 242.922392 
L 269.604312 232.395566 
L 271.235742 238.922369 
L 272.867172 232.909487 
L 274.498602 210.768034 
L 276.130032 223.650334 
L 277.761462 229.491909 
L 279.392892 232.652526 
L 281.024322 221.286295 
L 282.655751 228.207105 
L 284.287181 219.067867 
L 285.918611 210.613858 
L 287.550041 226.014373 
L 289.181471 227.727445 
L 290.812901 237.260689 
L 292.444331 225.234925 
L 294.075761 217.534668 
L 295.70719 223.650334 
L 297.33862 214.742361 
L 298.97005 220.404063 
L 300.60148 227.967275 
L 302.23291 233.80885 
L 303.86434 220.798069 
L 305.49577 198.85362 
L 307.1272 226.237072 
L 308.75863 235.736056 
L 310.390059 229.380559 
L 312.021489 228.858072 
L 313.652919 235.821709 
L 315.284349 209.628841 
L 316.915779 223.144978 
L 318.547209 222.768102 
L 320.178639 217.637452 
L 323.441498 215.718811 
L 325.072928 228.130017 
L 326.704358 232.369869 
L 328.335788 233.654673 
L 329.967218 225.174968 
L 331.598648 217.937239 
L 333.230078 218.391204 
L 334.861508 234.742474 
L 336.492937 218.254158 
L 338.124367 216.746655 
L 339.755797 228.489762 
L 341.387227 226.999389 
L 343.018657 212.875112 
L 344.650087 234.194291 
L 346.281517 217.320534 
L 347.912947 211.658831 
L 349.544376 227.333438 
L 351.175806 219.590354 
L 352.807236 229.380559 
L 354.438666 218.750949 
L 356.070096 227.641791 
L 357.701526 225.774543 
L 359.332956 229.945873 
L 360.964386 228.80668 
L 362.595815 226.699602 
L 364.227245 240.301392 
L 365.858675 237.51765 
L 367.490105 220.849462 
L 369.121535 215.821596 
L 370.752965 219.564658 
L 372.384395 232.078647 
L 374.015825 243.470575 
L 375.647254 213.132073 
L 377.278684 214.562488 
L 378.910114 222.742406 
L 380.541544 206.331178 
L 382.172974 226.022938 
L 383.804404 216.909396 
L 385.435834 224.189952 
L 387.067264 221.063596 
L 388.698693 213.06355 
L 390.330123 203.924312 
L 391.961553 219.61605 
L 393.592983 226.365553 
L 395.224413 211.616005 
L 396.855843 240.592614 
L 398.487273 222.60536 
L 398.487273 222.60536 
" style="fill:none;stroke:#1f77b4;stroke-linecap:square;stroke-width:1.5;"/>
   </g>
   <g id="line2d_19">
    <path clip-path="url(#pc3f239e189)" d="M 73.832727 266.451433 
L 75.464157 239.556206 
L 77.095587 207.007841 
L 78.727017 190.168346 
L 80.358447 169.645745 
L 81.989877 189.842862 
L 83.621307 199.607371 
L 85.252736 161.40587 
L 86.884166 156.437962 
L 88.515596 168.155373 
L 90.147026 181.911339 
L 91.778456 166.8877 
L 93.409886 184.737908 
L 95.041316 152.121021 
L 96.672746 154.365145 
L 98.304175 164.044001 
L 99.935605 152.121021 
L 101.567035 166.802046 
L 103.198465 174.185386 
L 104.829895 158.527909 
L 106.461325 164.677837 
L 108.092755 181.602987 
L 109.724185 123.495591 
L 111.355614 162.12536 
L 112.987044 178.570849 
L 114.618474 174.236778 
L 116.249904 178.896333 
L 117.881334 156.575008 
L 119.512764 131.255806 
L 121.144194 119.966663 
L 122.775624 192.686561 
L 124.407053 158.322341 
L 126.038483 160.497942 
L 127.669913 169.936968 
L 129.301343 180.283921 
L 130.932773 196.678018 
L 132.564203 174.836353 
L 134.195633 175.607235 
L 135.827063 166.305255 
L 137.458492 134.21942 
L 139.089922 137.953917 
L 140.721352 129.799695 
L 142.352782 155.649949 
L 143.984212 145.371518 
L 145.615642 151.024655 
L 147.247072 173.80851 
L 148.878502 154.056792 
L 150.509931 155.341596 
L 152.141361 151.675622 
L 153.772791 152.018237 
L 155.404221 163.735648 
L 157.035651 152.035367 
L 158.667081 145.988224 
L 160.298511 163.255988 
L 161.929941 165.671419 
L 163.56137 118.082284 
L 165.1928 147.10172 
L 166.82423 164.951929 
L 168.45566 129.045944 
L 170.08709 133.602715 
L 171.71852 154.502191 
L 173.34995 148.814792 
L 174.98138 135.572747 
L 176.61281 100.197814 
L 178.244239 129.936741 
L 179.875669 179.77 
L 181.507099 139.666989 
L 183.138529 129.559865 
L 184.769959 131.34146 
L 186.401389 151.333008 
L 188.032819 151.435792 
L 189.664249 148.780531 
L 191.295678 162.570759 
L 192.927108 138.810453 
L 194.558538 134.356466 
L 196.189968 118.304983 
L 197.821398 136.960335 
L 199.452828 107.906638 
L 201.084258 128.514891 
L 202.715688 98.279174 
L 204.347117 120.874591 
L 205.978547 119.469872 
L 207.609977 143.915407 
L 209.241407 133.414277 
L 210.872837 163.375903 
L 214.135697 94.202063 
L 215.767127 158.133903 
L 217.398556 114.227873 
L 219.029986 104.411971 
L 220.661416 61.842137 
L 222.292846 115.872421 
L 223.924276 97.47403 
L 225.555706 113.559775 
L 227.187136 124.677611 
L 228.818566 150.133858 
L 230.449995 72.840058 
L 232.081425 127.555571 
L 233.712855 82.296214 
L 235.344285 139.906819 
L 236.975715 129.765434 
L 238.607145 98.810226 
L 240.238575 98.998664 
L 241.870005 122.587663 
L 243.501434 94.493285 
L 245.132864 101.414095 
L 246.764294 94.664593 
L 248.395724 108.831696 
L 250.027154 113.69682 
L 251.658584 129.337166 
L 253.290014 117.174356 
L 254.921444 89.062848 
L 256.552873 107.375585 
L 258.184303 100.489037 
L 259.815733 101.396965 
L 261.447163 147.598511 
L 263.078593 117.071572 
L 264.710023 127.77827 
L 266.341453 91.598194 
L 267.972883 139.410028 
L 269.604312 102.253501 
L 271.235742 126.150852 
L 272.867172 95.212776 
L 274.498602 82.296214 
L 276.130032 96.651756 
L 277.761462 107.221409 
L 279.392892 110.185023 
L 281.024322 82.313345 
L 282.655751 90.758789 
L 284.287181 82.039253 
L 285.918611 53.568 
L 287.550041 75.889326 
L 289.181471 74.0906 
L 290.812901 121.165813 
L 292.444331 84.369031 
L 294.075761 104.583278 
L 295.70719 92.420468 
L 297.33862 85.842273 
L 298.97005 87.93222 
L 302.23291 117.03731 
L 303.86434 62.801457 
L 305.49577 78.493195 
L 307.1272 75.426796 
L 308.75863 104.360579 
L 310.390059 95.521128 
L 312.021489 91.25558 
L 313.652919 115.512676 
L 315.284349 91.51254 
L 316.915779 99.563978 
L 318.547209 79.897914 
L 320.178639 78.938593 
L 321.810069 100.351991 
L 323.441498 63.332509 
L 325.072928 79.795129 
L 326.704358 91.067142 
L 328.335788 111.092951 
L 329.967218 87.846567 
L 331.598648 88.583188 
L 333.230078 95.743828 
L 334.861508 96.805932 
L 336.492937 80.069221 
L 338.124367 83.084227 
L 339.755797 97.508292 
L 341.387227 97.47403 
L 343.018657 75.221228 
L 344.650087 107.803853 
L 346.281517 77.294044 
L 347.912947 92.728821 
L 349.544376 99.838069 
L 351.175806 101.51688 
L 352.807236 121.371382 
L 354.438666 84.369031 
L 356.070096 102.253501 
L 357.701526 100.283468 
L 359.332956 114.793186 
L 360.964386 104.172141 
L 362.595815 99.101449 
L 364.227245 105.919474 
L 365.858675 122.827493 
L 367.490105 91.204188 
L 369.121535 87.67526 
L 370.752965 74.450345 
L 372.384395 108.369167 
L 374.015825 101.722448 
L 375.647254 77.876489 
L 377.278684 101.002958 
L 378.910114 97.816645 
L 380.541544 77.962142 
L 382.172974 90.090691 
L 383.804404 79.383992 
L 385.435834 87.812305 
L 387.067264 78.030665 
L 388.698693 72.531705 
L 390.330123 73.251195 
L 391.961553 120.497715 
L 393.592983 99.392671 
L 395.224413 62.116228 
L 396.855843 134.236551 
L 398.487273 85.77375 
L 398.487273 85.77375 
" style="fill:none;stroke:#ff7f0e;stroke-linecap:square;stroke-width:1.5;"/>
   </g>
   <g id="line2d_20">
    <path clip-path="url(#pc3f239e189)" d="M 73.832727 180.96915 
L 398.487273 180.96915 
L 398.487273 180.96915 
" style="fill:none;stroke:#2ca02c;stroke-linecap:square;stroke-width:1.5;"/>
   </g>
   <g id="patch_3">
    <path d="M 57.6 307.584 
L 57.6 41.472 
" style="fill:none;stroke:#000000;stroke-linecap:square;stroke-linejoin:miter;stroke-width:0.8;"/>
   </g>
   <g id="patch_4">
    <path d="M 414.72 307.584 
L 414.72 41.472 
" style="fill:none;stroke:#000000;stroke-linecap:square;stroke-linejoin:miter;stroke-width:0.8;"/>
   </g>
   <g id="patch_5">
    <path d="M 57.6 307.584 
L 414.72 307.584 
" style="fill:none;stroke:#000000;stroke-linecap:square;stroke-linejoin:miter;stroke-width:0.8;"/>
   </g>
   <g id="patch_6">
    <path d="M 57.6 41.472 
L 414.72 41.472 
" style="fill:none;stroke:#000000;stroke-linecap:square;stroke-linejoin:miter;stroke-width:0.8;"/>
   </g>
   <g id="legend_1">
    <g id="patch_7">
     <path d="M 294.57625 302.584 
L 407.72 302.584 
Q 409.72 302.584 409.72 300.584 
L 409.72 256.993375 
Q 409.72 254.993375 407.72 254.993375 
L 294.57625 254.993375 
Q 292.57625 254.993375 292.57625 256.993375 
L 292.57625 300.584 
Q 292.57625 302.584 294.57625 302.584 
z
" style="fill:#ffffff;opacity:0.8;stroke:#cccccc;stroke-linejoin:miter;"/>
    </g>
    <g id="line2d_21">
     <path d="M 296.57625 263.091812 
L 316.57625 263.091812 
" style="fill:none;stroke:#1f77b4;stroke-linecap:square;stroke-width:1.5;"/>
    </g>
    <g id="line2d_22"/>
    <g id="text_20">
     <!-- pop_avg_return -->
     <defs>
      <path d="M 18.109375 8.203125 
L 18.109375 -20.796875 
L 9.078125 -20.796875 
L 9.078125 54.6875 
L 18.109375 54.6875 
L 18.109375 46.390625 
Q 20.953125 51.265625 25.265625 53.625 
Q 29.59375 56 35.59375 56 
Q 45.5625 56 51.78125 48.09375 
Q 58.015625 40.1875 58.015625 27.296875 
Q 58.015625 14.40625 51.78125 6.484375 
Q 45.5625 -1.421875 35.59375 -1.421875 
Q 29.59375 -1.421875 25.265625 0.953125 
Q 20.953125 3.328125 18.109375 8.203125 
z
M 48.6875 27.296875 
Q 48.6875 37.203125 44.609375 42.84375 
Q 40.53125 48.484375 33.40625 48.484375 
Q 26.265625 48.484375 22.1875 42.84375 
Q 18.109375 37.203125 18.109375 27.296875 
Q 18.109375 17.390625 22.1875 11.75 
Q 26.265625 6.109375 33.40625 6.109375 
Q 40.53125 6.109375 44.609375 11.75 
Q 48.6875 17.390625 48.6875 27.296875 
z
" id="DejaVuSans-112"/>
      <path d="M 50.984375 -16.609375 
L 50.984375 -23.578125 
L -0.984375 -23.578125 
L -0.984375 -16.609375 
z
" id="DejaVuSans-95"/>
      <path d="M 2.984375 54.6875 
L 12.5 54.6875 
L 29.59375 8.796875 
L 46.6875 54.6875 
L 56.203125 54.6875 
L 35.6875 0 
L 23.484375 0 
z
" id="DejaVuSans-118"/>
      <path d="M 45.40625 27.984375 
Q 45.40625 37.75 41.375 43.109375 
Q 37.359375 48.484375 30.078125 48.484375 
Q 22.859375 48.484375 18.828125 43.109375 
Q 14.796875 37.75 14.796875 27.984375 
Q 14.796875 18.265625 18.828125 12.890625 
Q 22.859375 7.515625 30.078125 7.515625 
Q 37.359375 7.515625 41.375 12.890625 
Q 45.40625 18.265625 45.40625 27.984375 
z
M 54.390625 6.78125 
Q 54.390625 -7.171875 48.1875 -13.984375 
Q 42 -20.796875 29.203125 -20.796875 
Q 24.46875 -20.796875 20.265625 -20.09375 
Q 16.0625 -19.390625 12.109375 -17.921875 
L 12.109375 -9.1875 
Q 16.0625 -11.328125 19.921875 -12.34375 
Q 23.78125 -13.375 27.78125 -13.375 
Q 36.625 -13.375 41.015625 -8.765625 
Q 45.40625 -4.15625 45.40625 5.171875 
L 45.40625 9.625 
Q 42.625 4.78125 38.28125 2.390625 
Q 33.9375 0 27.875 0 
Q 17.828125 0 11.671875 7.65625 
Q 5.515625 15.328125 5.515625 27.984375 
Q 5.515625 40.671875 11.671875 48.328125 
Q 17.828125 56 27.875 56 
Q 33.9375 56 38.28125 53.609375 
Q 42.625 51.21875 45.40625 46.390625 
L 45.40625 54.6875 
L 54.390625 54.6875 
z
" id="DejaVuSans-103"/>
     </defs>
     <g transform="translate(324.57625 266.591812)scale(0.1 -0.1)">
      <use xlink:href="#DejaVuSans-112"/>
      <use x="63.476562" xlink:href="#DejaVuSans-111"/>
      <use x="124.658203" xlink:href="#DejaVuSans-112"/>
      <use x="188.134766" xlink:href="#DejaVuSans-95"/>
      <use x="238.134766" xlink:href="#DejaVuSans-97"/>
      <use x="299.414062" xlink:href="#DejaVuSans-118"/>
      <use x="358.59375" xlink:href="#DejaVuSans-103"/>
      <use x="422.070312" xlink:href="#DejaVuSans-95"/>
      <use x="472.070312" xlink:href="#DejaVuSans-114"/>
      <use x="513.152344" xlink:href="#DejaVuSans-101"/>
      <use x="574.675781" xlink:href="#DejaVuSans-116"/>
      <use x="613.884766" xlink:href="#DejaVuSans-117"/>
      <use x="677.263672" xlink:href="#DejaVuSans-114"/>
      <use x="718.361328" xlink:href="#DejaVuSans-110"/>
     </g>
    </g>
    <g id="line2d_23">
     <path d="M 296.57625 278.048062 
L 316.57625 278.048062 
" style="fill:none;stroke:#ff7f0e;stroke-linecap:square;stroke-width:1.5;"/>
    </g>
    <g id="line2d_24"/>
    <g id="text_21">
     <!-- elite_avg_return -->
     <defs>
      <path d="M 9.421875 75.984375 
L 18.40625 75.984375 
L 18.40625 0 
L 9.421875 0 
z
" id="DejaVuSans-108"/>
     </defs>
     <g transform="translate(324.57625 281.548062)scale(0.1 -0.1)">
      <use xlink:href="#DejaVuSans-101"/>
      <use x="61.523438" xlink:href="#DejaVuSans-108"/>
      <use x="89.306641" xlink:href="#DejaVuSans-105"/>
      <use x="117.089844" xlink:href="#DejaVuSans-116"/>
      <use x="156.298828" xlink:href="#DejaVuSans-101"/>
      <use x="217.822266" xlink:href="#DejaVuSans-95"/>
      <use x="267.822266" xlink:href="#DejaVuSans-97"/>
      <use x="329.101562" xlink:href="#DejaVuSans-118"/>
      <use x="388.28125" xlink:href="#DejaVuSans-103"/>
      <use x="451.757812" xlink:href="#DejaVuSans-95"/>
      <use x="501.757812" xlink:href="#DejaVuSans-114"/>
      <use x="542.839844" xlink:href="#DejaVuSans-101"/>
      <use x="604.363281" xlink:href="#DejaVuSans-116"/>
      <use x="643.572266" xlink:href="#DejaVuSans-117"/>
      <use x="706.951172" xlink:href="#DejaVuSans-114"/>
      <use x="748.048828" xlink:href="#DejaVuSans-110"/>
     </g>
    </g>
    <g id="line2d_25">
     <path d="M 296.57625 293.004312 
L 316.57625 293.004312 
" style="fill:none;stroke:#2ca02c;stroke-linecap:square;stroke-width:1.5;"/>
    </g>
    <g id="line2d_26"/>
    <g id="text_22">
     <!-- UCB return -->
     <defs>
      <path d="M 8.6875 72.90625 
L 18.609375 72.90625 
L 18.609375 28.609375 
Q 18.609375 16.890625 22.84375 11.734375 
Q 27.09375 6.59375 36.625 6.59375 
Q 46.09375 6.59375 50.34375 11.734375 
Q 54.59375 16.890625 54.59375 28.609375 
L 54.59375 72.90625 
L 64.5 72.90625 
L 64.5 27.390625 
Q 64.5 13.140625 57.4375 5.859375 
Q 50.390625 -1.421875 36.625 -1.421875 
Q 22.796875 -1.421875 15.734375 5.859375 
Q 8.6875 13.140625 8.6875 27.390625 
z
" id="DejaVuSans-85"/>
      <path d="M 64.40625 67.28125 
L 64.40625 56.890625 
Q 59.421875 61.53125 53.78125 63.8125 
Q 48.140625 66.109375 41.796875 66.109375 
Q 29.296875 66.109375 22.65625 58.46875 
Q 16.015625 50.828125 16.015625 36.375 
Q 16.015625 21.96875 22.65625 14.328125 
Q 29.296875 6.6875 41.796875 6.6875 
Q 48.140625 6.6875 53.78125 8.984375 
Q 59.421875 11.28125 64.40625 15.921875 
L 64.40625 5.609375 
Q 59.234375 2.09375 53.4375 0.328125 
Q 47.65625 -1.421875 41.21875 -1.421875 
Q 24.65625 -1.421875 15.125 8.703125 
Q 5.609375 18.84375 5.609375 36.375 
Q 5.609375 53.953125 15.125 64.078125 
Q 24.65625 74.21875 41.21875 74.21875 
Q 47.75 74.21875 53.53125 72.484375 
Q 59.328125 70.75 64.40625 67.28125 
z
" id="DejaVuSans-67"/>
      <path d="M 19.671875 34.8125 
L 19.671875 8.109375 
L 35.5 8.109375 
Q 43.453125 8.109375 47.28125 11.40625 
Q 51.125 14.703125 51.125 21.484375 
Q 51.125 28.328125 47.28125 31.5625 
Q 43.453125 34.8125 35.5 34.8125 
z
M 19.671875 64.796875 
L 19.671875 42.828125 
L 34.28125 42.828125 
Q 41.5 42.828125 45.03125 45.53125 
Q 48.578125 48.25 48.578125 53.8125 
Q 48.578125 59.328125 45.03125 62.0625 
Q 41.5 64.796875 34.28125 64.796875 
z
M 9.8125 72.90625 
L 35.015625 72.90625 
Q 46.296875 72.90625 52.390625 68.21875 
Q 58.5 63.53125 58.5 54.890625 
Q 58.5 48.1875 55.375 44.234375 
Q 52.25 40.28125 46.1875 39.3125 
Q 53.46875 37.75 57.5 32.78125 
Q 61.53125 27.828125 61.53125 20.40625 
Q 61.53125 10.640625 54.890625 5.3125 
Q 48.25 0 35.984375 0 
L 9.8125 0 
z
" id="DejaVuSans-66"/>
      <path id="DejaVuSans-32"/>
     </defs>
     <g transform="translate(324.57625 296.504312)scale(0.1 -0.1)">
      <use xlink:href="#DejaVuSans-85"/>
      <use x="73.193359" xlink:href="#DejaVuSans-67"/>
      <use x="143.017578" xlink:href="#DejaVuSans-66"/>
      <use x="211.621094" xlink:href="#DejaVuSans-32"/>
      <use x="243.408203" xlink:href="#DejaVuSans-114"/>
      <use x="284.490234" xlink:href="#DejaVuSans-101"/>
      <use x="346.013672" xlink:href="#DejaVuSans-116"/>
      <use x="385.222656" xlink:href="#DejaVuSans-117"/>
      <use x="448.601562" xlink:href="#DejaVuSans-114"/>
      <use x="489.699219" xlink:href="#DejaVuSans-110"/>
     </g>
    </g>
   </g>
  </g>
 </g>
 <defs>
  <clipPath id="pc3f239e189">
   <rect height="266.112" width="357.12" x="57.6" y="41.472"/>
  </clipPath>
 </defs>
</svg>
