<?xml version="1.0" encoding="utf-8" standalone="no"?>
<!DOCTYPE svg PUBLIC "-//W3C//DTD SVG 1.1//EN"
  "http://www.w3.org/Graphics/SVG/1.1/DTD/svg11.dtd">
<!-- Created with matplotlib (https://matplotlib.org/) -->
<svg height="345.6pt" version="1.1" viewBox="0 0 460.8 345.6" width="460.8pt" xmlns="http://www.w3.org/2000/svg" xmlns:xlink="http://www.w3.org/1999/xlink">
 <defs>
  <style type="text/css">
*{stroke-linecap:butt;stroke-linejoin:round;}
  </style>
 </defs>
 <g id="figure_1">
  <g id="patch_1">
   <path d="M 0 345.6 
L 460.8 345.6 
L 460.8 0 
L 0 0 
z
" style="fill:#ffffff;"/>
  </g>
  <g id="axes_1">
   <g id="patch_2">
    <path d="M 57.6 307.584 
L 414.72 307.584 
L 414.72 41.472 
L 57.6 41.472 
z
" style="fill:#ffffff;"/>
   </g>
   <g id="matplotlib.axis_1">
    <g id="xtick_1">
     <g id="line2d_1">
      <defs>
       <path d="M 0 0 
L 0 3.5 
" id="m764535daec" style="stroke:#000000;stroke-width:0.8;"/>
      </defs>
      <g>
       <use style="stroke:#000000;stroke-width:0.8;" x="73.832727" xlink:href="#m764535daec" y="307.584"/>
      </g>
     </g>
     <g id="text_1">
      <!-- 0 -->
      <defs>
       <path d="M 31.78125 66.40625 
Q 24.171875 66.40625 20.328125 58.90625 
Q 16.5 51.421875 16.5 36.375 
Q 16.5 21.390625 20.328125 13.890625 
Q 24.171875 6.390625 31.78125 6.390625 
Q 39.453125 6.390625 43.28125 13.890625 
Q 47.125 21.390625 47.125 36.375 
Q 47.125 51.421875 43.28125 58.90625 
Q 39.453125 66.40625 31.78125 66.40625 
z
M 31.78125 74.21875 
Q 44.046875 74.21875 50.515625 64.515625 
Q 56.984375 54.828125 56.984375 36.375 
Q 56.984375 17.96875 50.515625 8.265625 
Q 44.046875 -1.421875 31.78125 -1.421875 
Q 19.53125 -1.421875 13.0625 8.265625 
Q 6.59375 17.96875 6.59375 36.375 
Q 6.59375 54.828125 13.0625 64.515625 
Q 19.53125 74.21875 31.78125 74.21875 
z
" id="DejaVuSans-48"/>
      </defs>
      <g transform="translate(70.651477 322.182437)scale(0.1 -0.1)">
       <use xlink:href="#DejaVuSans-48"/>
      </g>
     </g>
    </g>
    <g id="xtick_2">
     <g id="line2d_2">
      <g>
       <use style="stroke:#000000;stroke-width:0.8;" x="114.618474" xlink:href="#m764535daec" y="307.584"/>
      </g>
     </g>
     <g id="text_2">
      <!-- 25 -->
      <defs>
       <path d="M 19.1875 8.296875 
L 53.609375 8.296875 
L 53.609375 0 
L 7.328125 0 
L 7.328125 8.296875 
Q 12.9375 14.109375 22.625 23.890625 
Q 32.328125 33.6875 34.8125 36.53125 
Q 39.546875 41.84375 41.421875 45.53125 
Q 43.3125 49.21875 43.3125 52.78125 
Q 43.3125 58.59375 39.234375 62.25 
Q 35.15625 65.921875 28.609375 65.921875 
Q 23.96875 65.921875 18.8125 64.3125 
Q 13.671875 62.703125 7.8125 59.421875 
L 7.8125 69.390625 
Q 13.765625 71.78125 18.9375 73 
Q 24.125 74.21875 28.421875 74.21875 
Q 39.75 74.21875 46.484375 68.546875 
Q 53.21875 62.890625 53.21875 53.421875 
Q 53.21875 48.921875 51.53125 44.890625 
Q 49.859375 40.875 45.40625 35.40625 
Q 44.1875 33.984375 37.640625 27.21875 
Q 31.109375 20.453125 19.1875 8.296875 
z
" id="DejaVuSans-50"/>
       <path d="M 10.796875 72.90625 
L 49.515625 72.90625 
L 49.515625 64.59375 
L 19.828125 64.59375 
L 19.828125 46.734375 
Q 21.96875 47.46875 24.109375 47.828125 
Q 26.265625 48.1875 28.421875 48.1875 
Q 40.625 48.1875 47.75 41.5 
Q 54.890625 34.8125 54.890625 23.390625 
Q 54.890625 11.625 47.5625 5.09375 
Q 40.234375 -1.421875 26.90625 -1.421875 
Q 22.3125 -1.421875 17.546875 -0.640625 
Q 12.796875 0.140625 7.71875 1.703125 
L 7.71875 11.625 
Q 12.109375 9.234375 16.796875 8.0625 
Q 21.484375 6.890625 26.703125 6.890625 
Q 35.15625 6.890625 40.078125 11.328125 
Q 45.015625 15.765625 45.015625 23.390625 
Q 45.015625 31 40.078125 35.4375 
Q 35.15625 39.890625 26.703125 39.890625 
Q 22.75 39.890625 18.8125 39.015625 
Q 14.890625 38.140625 10.796875 36.28125 
z
" id="DejaVuSans-53"/>
      </defs>
      <g transform="translate(108.255974 322.182437)scale(0.1 -0.1)">
       <use xlink:href="#DejaVuSans-50"/>
       <use x="63.623047" xlink:href="#DejaVuSans-53"/>
      </g>
     </g>
    </g>
    <g id="xtick_3">
     <g id="line2d_3">
      <g>
       <use style="stroke:#000000;stroke-width:0.8;" x="155.404221" xlink:href="#m764535daec" y="307.584"/>
      </g>
     </g>
     <g id="text_3">
      <!-- 50 -->
      <g transform="translate(149.041721 322.182437)scale(0.1 -0.1)">
       <use xlink:href="#DejaVuSans-53"/>
       <use x="63.623047" xlink:href="#DejaVuSans-48"/>
      </g>
     </g>
    </g>
    <g id="xtick_4">
     <g id="line2d_4">
      <g>
       <use style="stroke:#000000;stroke-width:0.8;" x="196.189968" xlink:href="#m764535daec" y="307.584"/>
      </g>
     </g>
     <g id="text_4">
      <!-- 75 -->
      <defs>
       <path d="M 8.203125 72.90625 
L 55.078125 72.90625 
L 55.078125 68.703125 
L 28.609375 0 
L 18.3125 0 
L 43.21875 64.59375 
L 8.203125 64.59375 
z
" id="DejaVuSans-55"/>
      </defs>
      <g transform="translate(189.827468 322.182437)scale(0.1 -0.1)">
       <use xlink:href="#DejaVuSans-55"/>
       <use x="63.623047" xlink:href="#DejaVuSans-53"/>
      </g>
     </g>
    </g>
    <g id="xtick_5">
     <g id="line2d_5">
      <g>
       <use style="stroke:#000000;stroke-width:0.8;" x="236.975715" xlink:href="#m764535daec" y="307.584"/>
      </g>
     </g>
     <g id="text_5">
      <!-- 100 -->
      <defs>
       <path d="M 12.40625 8.296875 
L 28.515625 8.296875 
L 28.515625 63.921875 
L 10.984375 60.40625 
L 10.984375 69.390625 
L 28.421875 72.90625 
L 38.28125 72.90625 
L 38.28125 8.296875 
L 54.390625 8.296875 
L 54.390625 0 
L 12.40625 0 
z
" id="DejaVuSans-49"/>
      </defs>
      <g transform="translate(227.431965 322.182437)scale(0.1 -0.1)">
       <use xlink:href="#DejaVuSans-49"/>
       <use x="63.623047" xlink:href="#DejaVuSans-48"/>
       <use x="127.246094" xlink:href="#DejaVuSans-48"/>
      </g>
     </g>
    </g>
    <g id="xtick_6">
     <g id="line2d_6">
      <g>
       <use style="stroke:#000000;stroke-width:0.8;" x="277.761462" xlink:href="#m764535daec" y="307.584"/>
      </g>
     </g>
     <g id="text_6">
      <!-- 125 -->
      <g transform="translate(268.217712 322.182437)scale(0.1 -0.1)">
       <use xlink:href="#DejaVuSans-49"/>
       <use x="63.623047" xlink:href="#DejaVuSans-50"/>
       <use x="127.246094" xlink:href="#DejaVuSans-53"/>
      </g>
     </g>
    </g>
    <g id="xtick_7">
     <g id="line2d_7">
      <g>
       <use style="stroke:#000000;stroke-width:0.8;" x="318.547209" xlink:href="#m764535daec" y="307.584"/>
      </g>
     </g>
     <g id="text_7">
      <!-- 150 -->
      <g transform="translate(309.003459 322.182437)scale(0.1 -0.1)">
       <use xlink:href="#DejaVuSans-49"/>
       <use x="63.623047" xlink:href="#DejaVuSans-53"/>
       <use x="127.246094" xlink:href="#DejaVuSans-48"/>
      </g>
     </g>
    </g>
    <g id="xtick_8">
     <g id="line2d_8">
      <g>
       <use style="stroke:#000000;stroke-width:0.8;" x="359.332956" xlink:href="#m764535daec" y="307.584"/>
      </g>
     </g>
     <g id="text_8">
      <!-- 175 -->
      <g transform="translate(349.789206 322.182437)scale(0.1 -0.1)">
       <use xlink:href="#DejaVuSans-49"/>
       <use x="63.623047" xlink:href="#DejaVuSans-55"/>
       <use x="127.246094" xlink:href="#DejaVuSans-53"/>
      </g>
     </g>
    </g>
    <g id="xtick_9">
     <g id="line2d_9">
      <g>
       <use style="stroke:#000000;stroke-width:0.8;" x="400.118703" xlink:href="#m764535daec" y="307.584"/>
      </g>
     </g>
     <g id="text_9">
      <!-- 200 -->
      <g transform="translate(390.574953 322.182437)scale(0.1 -0.1)">
       <use xlink:href="#DejaVuSans-50"/>
       <use x="63.623047" xlink:href="#DejaVuSans-48"/>
       <use x="127.246094" xlink:href="#DejaVuSans-48"/>
      </g>
     </g>
    </g>
    <g id="text_10">
     <!-- Generations -->
     <defs>
      <path d="M 59.515625 10.40625 
L 59.515625 29.984375 
L 43.40625 29.984375 
L 43.40625 38.09375 
L 69.28125 38.09375 
L 69.28125 6.78125 
Q 63.578125 2.734375 56.6875 0.65625 
Q 49.8125 -1.421875 42 -1.421875 
Q 24.90625 -1.421875 15.25 8.5625 
Q 5.609375 18.5625 5.609375 36.375 
Q 5.609375 54.25 15.25 64.234375 
Q 24.90625 74.21875 42 74.21875 
Q 49.125 74.21875 55.546875 72.453125 
Q 61.96875 70.703125 67.390625 67.28125 
L 67.390625 56.78125 
Q 61.921875 61.421875 55.765625 63.765625 
Q 49.609375 66.109375 42.828125 66.109375 
Q 29.4375 66.109375 22.71875 58.640625 
Q 16.015625 51.171875 16.015625 36.375 
Q 16.015625 21.625 22.71875 14.15625 
Q 29.4375 6.6875 42.828125 6.6875 
Q 48.046875 6.6875 52.140625 7.59375 
Q 56.25 8.5 59.515625 10.40625 
z
" id="DejaVuSans-71"/>
      <path d="M 56.203125 29.59375 
L 56.203125 25.203125 
L 14.890625 25.203125 
Q 15.484375 15.921875 20.484375 11.0625 
Q 25.484375 6.203125 34.421875 6.203125 
Q 39.59375 6.203125 44.453125 7.46875 
Q 49.3125 8.734375 54.109375 11.28125 
L 54.109375 2.78125 
Q 49.265625 0.734375 44.1875 -0.34375 
Q 39.109375 -1.421875 33.890625 -1.421875 
Q 20.796875 -1.421875 13.15625 6.1875 
Q 5.515625 13.8125 5.515625 26.8125 
Q 5.515625 40.234375 12.765625 48.109375 
Q 20.015625 56 32.328125 56 
Q 43.359375 56 49.78125 48.890625 
Q 56.203125 41.796875 56.203125 29.59375 
z
M 47.21875 32.234375 
Q 47.125 39.59375 43.09375 43.984375 
Q 39.0625 48.390625 32.421875 48.390625 
Q 24.90625 48.390625 20.390625 44.140625 
Q 15.875 39.890625 15.1875 32.171875 
z
" id="DejaVuSans-101"/>
      <path d="M 54.890625 33.015625 
L 54.890625 0 
L 45.90625 0 
L 45.90625 32.71875 
Q 45.90625 40.484375 42.875 44.328125 
Q 39.84375 48.1875 33.796875 48.1875 
Q 26.515625 48.1875 22.3125 43.546875 
Q 18.109375 38.921875 18.109375 30.90625 
L 18.109375 0 
L 9.078125 0 
L 9.078125 54.6875 
L 18.109375 54.6875 
L 18.109375 46.1875 
Q 21.34375 51.125 25.703125 53.5625 
Q 30.078125 56 35.796875 56 
Q 45.21875 56 50.046875 50.171875 
Q 54.890625 44.34375 54.890625 33.015625 
z
" id="DejaVuSans-110"/>
      <path d="M 41.109375 46.296875 
Q 39.59375 47.171875 37.8125 47.578125 
Q 36.03125 48 33.890625 48 
Q 26.265625 48 22.1875 43.046875 
Q 18.109375 38.09375 18.109375 28.8125 
L 18.109375 0 
L 9.078125 0 
L 9.078125 54.6875 
L 18.109375 54.6875 
L 18.109375 46.1875 
Q 20.953125 51.171875 25.484375 53.578125 
Q 30.03125 56 36.53125 56 
Q 37.453125 56 38.578125 55.875 
Q 39.703125 55.765625 41.0625 55.515625 
z
" id="DejaVuSans-114"/>
      <path d="M 34.28125 27.484375 
Q 23.390625 27.484375 19.1875 25 
Q 14.984375 22.515625 14.984375 16.5 
Q 14.984375 11.71875 18.140625 8.90625 
Q 21.296875 6.109375 26.703125 6.109375 
Q 34.1875 6.109375 38.703125 11.40625 
Q 43.21875 16.703125 43.21875 25.484375 
L 43.21875 27.484375 
z
M 52.203125 31.203125 
L 52.203125 0 
L 43.21875 0 
L 43.21875 8.296875 
Q 40.140625 3.328125 35.546875 0.953125 
Q 30.953125 -1.421875 24.3125 -1.421875 
Q 15.921875 -1.421875 10.953125 3.296875 
Q 6 8.015625 6 15.921875 
Q 6 25.140625 12.171875 29.828125 
Q 18.359375 34.515625 30.609375 34.515625 
L 43.21875 34.515625 
L 43.21875 35.40625 
Q 43.21875 41.609375 39.140625 45 
Q 35.0625 48.390625 27.6875 48.390625 
Q 23 48.390625 18.546875 47.265625 
Q 14.109375 46.140625 10.015625 43.890625 
L 10.015625 52.203125 
Q 14.9375 54.109375 19.578125 55.046875 
Q 24.21875 56 28.609375 56 
Q 40.484375 56 46.34375 49.84375 
Q 52.203125 43.703125 52.203125 31.203125 
z
" id="DejaVuSans-97"/>
      <path d="M 18.3125 70.21875 
L 18.3125 54.6875 
L 36.8125 54.6875 
L 36.8125 47.703125 
L 18.3125 47.703125 
L 18.3125 18.015625 
Q 18.3125 11.328125 20.140625 9.421875 
Q 21.96875 7.515625 27.59375 7.515625 
L 36.8125 7.515625 
L 36.8125 0 
L 27.59375 0 
Q 17.1875 0 13.234375 3.875 
Q 9.28125 7.765625 9.28125 18.015625 
L 9.28125 47.703125 
L 2.6875 47.703125 
L 2.6875 54.6875 
L 9.28125 54.6875 
L 9.28125 70.21875 
z
" id="DejaVuSans-116"/>
      <path d="M 9.421875 54.6875 
L 18.40625 54.6875 
L 18.40625 0 
L 9.421875 0 
z
M 9.421875 75.984375 
L 18.40625 75.984375 
L 18.40625 64.59375 
L 9.421875 64.59375 
z
" id="DejaVuSans-105"/>
      <path d="M 30.609375 48.390625 
Q 23.390625 48.390625 19.1875 42.75 
Q 14.984375 37.109375 14.984375 27.296875 
Q 14.984375 17.484375 19.15625 11.84375 
Q 23.34375 6.203125 30.609375 6.203125 
Q 37.796875 6.203125 41.984375 11.859375 
Q 46.1875 17.53125 46.1875 27.296875 
Q 46.1875 37.015625 41.984375 42.703125 
Q 37.796875 48.390625 30.609375 48.390625 
z
M 30.609375 56 
Q 42.328125 56 49.015625 48.375 
Q 55.71875 40.765625 55.71875 27.296875 
Q 55.71875 13.875 49.015625 6.21875 
Q 42.328125 -1.421875 30.609375 -1.421875 
Q 18.84375 -1.421875 12.171875 6.21875 
Q 5.515625 13.875 5.515625 27.296875 
Q 5.515625 40.765625 12.171875 48.375 
Q 18.84375 56 30.609375 56 
z
" id="DejaVuSans-111"/>
      <path d="M 44.28125 53.078125 
L 44.28125 44.578125 
Q 40.484375 46.53125 36.375 47.5 
Q 32.28125 48.484375 27.875 48.484375 
Q 21.1875 48.484375 17.84375 46.4375 
Q 14.5 44.390625 14.5 40.28125 
Q 14.5 37.15625 16.890625 35.375 
Q 19.28125 33.59375 26.515625 31.984375 
L 29.59375 31.296875 
Q 39.15625 29.25 43.1875 25.515625 
Q 47.21875 21.78125 47.21875 15.09375 
Q 47.21875 7.46875 41.1875 3.015625 
Q 35.15625 -1.421875 24.609375 -1.421875 
Q 20.21875 -1.421875 15.453125 -0.5625 
Q 10.6875 0.296875 5.421875 2 
L 5.421875 11.28125 
Q 10.40625 8.6875 15.234375 7.390625 
Q 20.0625 6.109375 24.8125 6.109375 
Q 31.15625 6.109375 34.5625 8.28125 
Q 37.984375 10.453125 37.984375 14.40625 
Q 37.984375 18.0625 35.515625 20.015625 
Q 33.0625 21.96875 24.703125 23.78125 
L 21.578125 24.515625 
Q 13.234375 26.265625 9.515625 29.90625 
Q 5.8125 33.546875 5.8125 39.890625 
Q 5.8125 47.609375 11.28125 51.796875 
Q 16.75 56 26.8125 56 
Q 31.78125 56 36.171875 55.265625 
Q 40.578125 54.546875 44.28125 53.078125 
z
" id="DejaVuSans-115"/>
     </defs>
     <g transform="translate(205.662344 335.860562)scale(0.1 -0.1)">
      <use xlink:href="#DejaVuSans-71"/>
      <use x="77.490234" xlink:href="#DejaVuSans-101"/>
      <use x="139.013672" xlink:href="#DejaVuSans-110"/>
      <use x="202.392578" xlink:href="#DejaVuSans-101"/>
      <use x="263.916016" xlink:href="#DejaVuSans-114"/>
      <use x="305.029297" xlink:href="#DejaVuSans-97"/>
      <use x="366.308594" xlink:href="#DejaVuSans-116"/>
      <use x="405.517578" xlink:href="#DejaVuSans-105"/>
      <use x="433.300781" xlink:href="#DejaVuSans-111"/>
      <use x="494.482422" xlink:href="#DejaVuSans-110"/>
      <use x="557.861328" xlink:href="#DejaVuSans-115"/>
     </g>
    </g>
   </g>
   <g id="matplotlib.axis_2">
    <g id="ytick_1">
     <g id="line2d_10">
      <defs>
       <path d="M 0 0 
L -3.5 0 
" id="m3cd91242ae" style="stroke:#000000;stroke-width:0.8;"/>
      </defs>
      <g>
       <use style="stroke:#000000;stroke-width:0.8;" x="57.6" xlink:href="#m3cd91242ae" y="288.936887"/>
      </g>
     </g>
     <g id="text_11">
      <!-- 0.50 -->
      <defs>
       <path d="M 10.6875 12.40625 
L 21 12.40625 
L 21 0 
L 10.6875 0 
z
" id="DejaVuSans-46"/>
      </defs>
      <g transform="translate(28.334375 292.736106)scale(0.1 -0.1)">
       <use xlink:href="#DejaVuSans-48"/>
       <use x="63.623047" xlink:href="#DejaVuSans-46"/>
       <use x="95.410156" xlink:href="#DejaVuSans-53"/>
       <use x="159.033203" xlink:href="#DejaVuSans-48"/>
      </g>
     </g>
    </g>
    <g id="ytick_2">
     <g id="line2d_11">
      <g>
       <use style="stroke:#000000;stroke-width:0.8;" x="57.6" xlink:href="#m3cd91242ae" y="243.63182"/>
      </g>
     </g>
     <g id="text_12">
      <!-- 0.55 -->
      <g transform="translate(28.334375 247.431038)scale(0.1 -0.1)">
       <use xlink:href="#DejaVuSans-48"/>
       <use x="63.623047" xlink:href="#DejaVuSans-46"/>
       <use x="95.410156" xlink:href="#DejaVuSans-53"/>
       <use x="159.033203" xlink:href="#DejaVuSans-53"/>
      </g>
     </g>
    </g>
    <g id="ytick_3">
     <g id="line2d_12">
      <g>
       <use style="stroke:#000000;stroke-width:0.8;" x="57.6" xlink:href="#m3cd91242ae" y="198.326752"/>
      </g>
     </g>
     <g id="text_13">
      <!-- 0.60 -->
      <defs>
       <path d="M 33.015625 40.375 
Q 26.375 40.375 22.484375 35.828125 
Q 18.609375 31.296875 18.609375 23.390625 
Q 18.609375 15.53125 22.484375 10.953125 
Q 26.375 6.390625 33.015625 6.390625 
Q 39.65625 6.390625 43.53125 10.953125 
Q 47.40625 15.53125 47.40625 23.390625 
Q 47.40625 31.296875 43.53125 35.828125 
Q 39.65625 40.375 33.015625 40.375 
z
M 52.59375 71.296875 
L 52.59375 62.3125 
Q 48.875 64.0625 45.09375 64.984375 
Q 41.3125 65.921875 37.59375 65.921875 
Q 27.828125 65.921875 22.671875 59.328125 
Q 17.53125 52.734375 16.796875 39.40625 
Q 19.671875 43.65625 24.015625 45.921875 
Q 28.375 48.1875 33.59375 48.1875 
Q 44.578125 48.1875 50.953125 41.515625 
Q 57.328125 34.859375 57.328125 23.390625 
Q 57.328125 12.15625 50.6875 5.359375 
Q 44.046875 -1.421875 33.015625 -1.421875 
Q 20.359375 -1.421875 13.671875 8.265625 
Q 6.984375 17.96875 6.984375 36.375 
Q 6.984375 53.65625 15.1875 63.9375 
Q 23.390625 74.21875 37.203125 74.21875 
Q 40.921875 74.21875 44.703125 73.484375 
Q 48.484375 72.75 52.59375 71.296875 
z
" id="DejaVuSans-54"/>
      </defs>
      <g transform="translate(28.334375 202.125971)scale(0.1 -0.1)">
       <use xlink:href="#DejaVuSans-48"/>
       <use x="63.623047" xlink:href="#DejaVuSans-46"/>
       <use x="95.410156" xlink:href="#DejaVuSans-54"/>
       <use x="159.033203" xlink:href="#DejaVuSans-48"/>
      </g>
     </g>
    </g>
    <g id="ytick_4">
     <g id="line2d_13">
      <g>
       <use style="stroke:#000000;stroke-width:0.8;" x="57.6" xlink:href="#m3cd91242ae" y="153.021684"/>
      </g>
     </g>
     <g id="text_14">
      <!-- 0.65 -->
      <g transform="translate(28.334375 156.820903)scale(0.1 -0.1)">
       <use xlink:href="#DejaVuSans-48"/>
       <use x="63.623047" xlink:href="#DejaVuSans-46"/>
       <use x="95.410156" xlink:href="#DejaVuSans-54"/>
       <use x="159.033203" xlink:href="#DejaVuSans-53"/>
      </g>
     </g>
    </g>
    <g id="ytick_5">
     <g id="line2d_14">
      <g>
       <use style="stroke:#000000;stroke-width:0.8;" x="57.6" xlink:href="#m3cd91242ae" y="107.716617"/>
      </g>
     </g>
     <g id="text_15">
      <!-- 0.70 -->
      <g transform="translate(28.334375 111.515836)scale(0.1 -0.1)">
       <use xlink:href="#DejaVuSans-48"/>
       <use x="63.623047" xlink:href="#DejaVuSans-46"/>
       <use x="95.410156" xlink:href="#DejaVuSans-55"/>
       <use x="159.033203" xlink:href="#DejaVuSans-48"/>
      </g>
     </g>
    </g>
    <g id="ytick_6">
     <g id="line2d_15">
      <g>
       <use style="stroke:#000000;stroke-width:0.8;" x="57.6" xlink:href="#m3cd91242ae" y="62.411549"/>
      </g>
     </g>
     <g id="text_16">
      <!-- 0.75 -->
      <g transform="translate(28.334375 66.210768)scale(0.1 -0.1)">
       <use xlink:href="#DejaVuSans-48"/>
       <use x="63.623047" xlink:href="#DejaVuSans-46"/>
       <use x="95.410156" xlink:href="#DejaVuSans-55"/>
       <use x="159.033203" xlink:href="#DejaVuSans-53"/>
      </g>
     </g>
    </g>
    <g id="text_17">
     <!-- Returns -->
     <defs>
      <path d="M 44.390625 34.1875 
Q 47.5625 33.109375 50.5625 29.59375 
Q 53.5625 26.078125 56.59375 19.921875 
L 66.609375 0 
L 56 0 
L 46.6875 18.703125 
Q 43.0625 26.03125 39.671875 28.421875 
Q 36.28125 30.8125 30.421875 30.8125 
L 19.671875 30.8125 
L 19.671875 0 
L 9.8125 0 
L 9.8125 72.90625 
L 32.078125 72.90625 
Q 44.578125 72.90625 50.734375 67.671875 
Q 56.890625 62.453125 56.890625 51.90625 
Q 56.890625 45.015625 53.6875 40.46875 
Q 50.484375 35.9375 44.390625 34.1875 
z
M 19.671875 64.796875 
L 19.671875 38.921875 
L 32.078125 38.921875 
Q 39.203125 38.921875 42.84375 42.21875 
Q 46.484375 45.515625 46.484375 51.90625 
Q 46.484375 58.296875 42.84375 61.546875 
Q 39.203125 64.796875 32.078125 64.796875 
z
" id="DejaVuSans-82"/>
      <path d="M 8.5 21.578125 
L 8.5 54.6875 
L 17.484375 54.6875 
L 17.484375 21.921875 
Q 17.484375 14.15625 20.5 10.265625 
Q 23.53125 6.390625 29.59375 6.390625 
Q 36.859375 6.390625 41.078125 11.03125 
Q 45.3125 15.671875 45.3125 23.6875 
L 45.3125 54.6875 
L 54.296875 54.6875 
L 54.296875 0 
L 45.3125 0 
L 45.3125 8.40625 
Q 42.046875 3.421875 37.71875 1 
Q 33.40625 -1.421875 27.6875 -1.421875 
Q 18.265625 -1.421875 13.375 4.4375 
Q 8.5 10.296875 8.5 21.578125 
z
M 31.109375 56 
z
" id="DejaVuSans-117"/>
     </defs>
     <g transform="translate(22.254687 194.032688)rotate(-90)scale(0.1 -0.1)">
      <use xlink:href="#DejaVuSans-82"/>
      <use x="69.419922" xlink:href="#DejaVuSans-101"/>
      <use x="130.943359" xlink:href="#DejaVuSans-116"/>
      <use x="170.152344" xlink:href="#DejaVuSans-117"/>
      <use x="233.53125" xlink:href="#DejaVuSans-114"/>
      <use x="274.628906" xlink:href="#DejaVuSans-110"/>
      <use x="338.007812" xlink:href="#DejaVuSans-115"/>
     </g>
    </g>
   </g>
   <g id="line2d_16">
    <path clip-path="url(#p9e45980223)" d="M 73.832727 288.048908 
L 75.464157 295.488 
L 77.095587 282.730093 
L 78.727017 280.347046 
L 80.358447 291.247446 
L 81.989877 284.016757 
L 83.621307 289.607402 
L 85.252736 287.949237 
L 86.884166 272.41866 
L 88.515596 264.535578 
L 90.147026 259.407044 
L 91.778456 269.11139 
L 93.409886 280.174887 
L 95.041316 255.692029 
L 96.672746 265.940035 
L 98.304175 257.431743 
L 99.935605 270.443359 
L 101.567035 270.81486 
L 103.198465 272.853588 
L 104.829895 271.07763 
L 106.461325 256.806533 
L 108.092755 261.771969 
L 109.724185 266.175621 
L 111.355614 263.402951 
L 112.987044 257.241462 
L 114.618474 243.205952 
L 116.249904 256.50752 
L 117.881334 240.15239 
L 119.512764 253.861704 
L 121.144194 244.247969 
L 122.775624 251.161522 
L 124.407053 250.563495 
L 126.038483 236.718266 
L 127.669913 241.964593 
L 129.301343 228.382134 
L 130.932773 230.04936 
L 132.564203 219.429853 
L 134.195633 235.875592 
L 135.827063 227.521338 
L 137.458492 213.268363 
L 139.089922 211.428978 
L 140.721352 208.402599 
L 142.352782 223.552614 
L 143.984212 214.591271 
L 145.615642 202.594489 
L 147.247072 199.858063 
L 148.878502 219.375486 
L 150.509931 214.355685 
L 152.141361 210.46851 
L 153.772791 206.989081 
L 155.404221 190.17184 
L 157.035651 188.241844 
L 158.667081 208.248562 
L 160.298511 191.186673 
L 161.929941 197.094454 
L 163.56137 194.802018 
L 165.1928 196.152109 
L 166.82423 167.727709 
L 168.45566 196.831685 
L 170.08709 204.705706 
L 171.71852 182.234392 
L 173.34995 187.109217 
L 174.98138 199.867124 
L 176.61281 186.094384 
L 178.244239 195.155397 
L 179.875669 196.605159 
L 181.507099 190.88766 
L 183.138529 186.746777 
L 184.769959 194.267418 
L 186.401389 208.692551 
L 188.032819 192.582069 
L 189.664249 193.986527 
L 191.295678 184.463401 
L 192.927108 186.484007 
L 194.558538 187.217949 
L 196.189968 193.615025 
L 197.821398 198.190837 
L 199.452828 172.838121 
L 201.084258 174.188212 
L 204.347117 159.545614 
L 205.978547 176.94276 
L 207.609977 170.074512 
L 209.241407 162.10082 
L 210.872837 159.871811 
L 212.504267 174.378493 
L 214.135697 159.400638 
L 215.767127 170.699722 
L 217.398556 177.12398 
L 219.029986 169.068739 
L 220.661416 164.347951 
L 222.292846 169.576156 
L 223.924276 171.678311 
L 225.555706 169.349631 
L 227.187136 186.891753 
L 228.818566 164.556355 
L 230.449995 173.390843 
L 232.081425 171.315871 
L 233.712855 168.217004 
L 235.344285 161.684013 
L 236.975715 171.614884 
L 238.607145 161.285329 
L 240.238575 172.856243 
L 241.870005 176.453465 
L 243.501434 164.60166 
L 245.132864 156.048063 
L 246.764294 165.607432 
L 248.395724 164.547294 
L 250.027154 172.095118 
L 251.658584 160.13458 
L 253.290014 169.893292 
L 254.921444 167.845503 
L 256.552873 164.637904 
L 258.184303 164.628843 
L 259.815733 167.854564 
L 261.447163 170.409769 
L 263.078593 179.497966 
L 264.710023 176.154452 
L 266.341453 166.459167 
L 267.972883 167.628038 
L 269.604312 178.881817 
L 271.235742 168.960007 
L 272.867172 176.924638 
L 274.498602 164.520111 
L 276.130032 179.742613 
L 277.761462 167.972357 
L 279.392892 166.667571 
L 281.024322 165.544005 
L 282.655751 183.212981 
L 284.287181 175.529242 
L 285.918611 182.569649 
L 287.550041 174.559714 
L 289.181471 181.228619 
L 290.812901 178.310973 
L 292.444331 151.90718 
L 294.075761 177.350506 
L 295.70719 171.207139 
L 297.33862 181.219558 
L 298.97005 174.043236 
L 300.60148 182.30688 
L 302.23291 177.731068 
L 303.86434 177.422994 
L 305.49577 165.797713 
L 307.1272 183.185798 
L 308.75863 167.981418 
L 310.390059 165.987995 
L 312.021489 169.367753 
L 313.652919 154.562057 
L 315.284349 160.179885 
L 316.915779 170.835637 
L 318.547209 172.221972 
L 320.178639 169.114044 
L 321.810069 164.737575 
L 323.441498 160.823217 
L 325.072928 165.969873 
L 326.704358 166.259825 
L 328.335788 170.871881 
L 329.967218 160.415471 
L 331.598648 166.069544 
L 333.230078 169.413058 
L 334.861508 179.189891 
L 336.492937 161.838051 
L 338.124367 174.659385 
L 341.387227 162.46326 
L 343.018657 169.313387 
L 344.650087 172.883426 
L 346.281517 167.446818 
L 347.912947 155.114779 
L 349.544376 169.748315 
L 351.175806 173.164317 
L 352.807236 169.422119 
L 354.438666 184.345608 
L 356.070096 172.47568 
L 357.701526 181.40984 
L 359.332956 173.119012 
L 360.964386 181.065521 
L 362.595815 163.197203 
L 364.227245 168.217004 
L 365.858675 159.563736 
L 367.490105 184.762415 
L 369.121535 174.768117 
L 370.752965 173.028402 
L 372.384395 158.920404 
L 374.015825 163.777107 
L 375.647254 178.428766 
L 377.278684 175.78295 
L 378.910114 172.756572 
L 380.541544 170.618173 
L 382.172974 165.897385 
L 383.804404 182.75087 
L 385.435834 185.596028 
L 387.067264 158.485476 
L 388.698693 172.73845 
L 390.330123 172.339765 
L 391.961553 171.515213 
L 393.592983 169.014373 
L 395.224413 170.980613 
L 396.855843 172.167606 
L 398.487273 173.925443 
L 398.487273 173.925443 
" style="fill:none;stroke:#1f77b4;stroke-linecap:square;stroke-width:1.5;"/>
   </g>
   <g id="line2d_17">
    <path clip-path="url(#p9e45980223)" d="M 73.832727 252.312271 
L 75.464157 260.612159 
L 77.095587 238.467042 
L 78.727017 229.750347 
L 80.358447 228.554293 
L 81.989877 212.96935 
L 83.621307 217.209904 
L 85.252736 212.951228 
L 86.884166 184.463401 
L 88.515596 161.665891 
L 90.147026 160.868522 
L 91.778456 180.277213 
L 93.409886 196.840746 
L 95.041316 162.01021 
L 96.672746 176.652808 
L 98.304175 169.766437 
L 99.935605 175.402388 
L 101.567035 170.05639 
L 103.198465 173.662673 
L 104.829895 169.657705 
L 106.461325 155.30506 
L 108.092755 173.427087 
L 109.724185 151.64441 
L 111.355614 170.020146 
L 112.987044 181.364535 
L 114.618474 141.89476 
L 116.249904 152.749854 
L 117.881334 157.081018 
L 119.512764 151.263848 
L 121.144194 167.55555 
L 122.775624 140.934292 
L 124.407053 130.423517 
L 126.038483 130.061076 
L 127.669913 125.385593 
L 129.301343 127.451504 
L 130.932773 120.25706 
L 132.564203 129.934222 
L 134.195633 123.011608 
L 135.827063 125.331227 
L 137.458492 119.5503 
L 139.089922 112.156513 
L 140.721352 115.708431 
L 142.352782 121.761188 
L 143.984212 115.056038 
L 145.615642 106.629295 
L 147.247072 101.428273 
L 148.878502 137.78106 
L 150.509931 131.202764 
L 152.141361 135.968857 
L 153.772791 101.174565 
L 155.404221 115.4366 
L 157.035651 94.976832 
L 158.667081 123.48278 
L 160.298511 93.563314 
L 161.929941 99.869779 
L 163.56137 102.497473 
L 165.1928 89.884542 
L 166.82423 100.449684 
L 168.45566 105.86817 
L 170.08709 94.831856 
L 171.71852 99.869779 
L 173.34995 82.690097 
L 174.98138 107.607885 
L 176.61281 91.950453 
L 178.244239 104.635872 
L 179.875669 120.25706 
L 181.507099 95.339272 
L 183.138529 90.555057 
L 184.769959 105.360753 
L 186.401389 117.448145 
L 188.032819 103.947235 
L 189.664249 95.774201 
L 191.295678 85.680232 
L 192.927108 95.538615 
L 194.558538 96.879645 
L 196.189968 106.719905 
L 197.821398 94.233829 
L 201.084258 84.013005 
L 202.715688 72.288054 
L 204.347117 80.896017 
L 205.978547 100.069121 
L 207.609977 69.062333 
L 209.241407 86.386991 
L 210.872837 83.559955 
L 212.504267 97.459549 
L 214.135697 82.943806 
L 215.767127 91.551769 
L 217.398556 85.444646 
L 219.029986 92.711578 
L 220.661416 77.307855 
L 222.292846 87.872997 
L 223.924276 96.408472 
L 225.555706 87.854875 
L 227.187136 98.728091 
L 228.818566 102.696815 
L 230.449995 89.59459 
L 232.081425 90.174495 
L 233.712855 73.719694 
L 235.344285 64.749291 
L 236.975715 96.553448 
L 238.607145 69.007967 
L 240.238575 91.859843 
L 241.870005 79.011326 
L 243.501434 79.935549 
L 245.132864 81.802118 
L 246.764294 78.793862 
L 248.395724 83.614321 
L 250.027154 101.210809 
L 251.658584 59.983198 
L 253.290014 100.812124 
L 254.921444 90.953742 
L 256.552873 77.561564 
L 258.184303 70.077167 
L 259.815733 79.573109 
L 261.447163 98.492505 
L 263.078593 98.039454 
L 264.710023 93.110263 
L 266.341453 85.535256 
L 267.972883 83.16127 
L 269.604312 97.006499 
L 271.235742 76.601096 
L 272.867172 94.541903 
L 274.498602 84.701642 
L 276.130032 87.691777 
L 277.761462 77.398466 
L 279.392892 53.568 
L 281.024322 86.441357 
L 282.655751 102.896158 
L 284.287181 86.169527 
L 285.918611 104.055967 
L 287.550041 88.235438 
L 289.181471 106.284977 
L 290.812901 90.410081 
L 292.444331 71.037634 
L 294.075761 91.533647 
L 295.70719 84.900985 
L 297.33862 86.314503 
L 298.97005 60.037564 
L 300.60148 106.085634 
L 302.23291 83.414979 
L 303.86434 73.321009 
L 305.49577 89.032807 
L 307.1272 103.131744 
L 308.75863 71.925613 
L 310.390059 72.106834 
L 312.021489 87.256848 
L 313.652919 75.622507 
L 315.284349 79.355644 
L 316.915779 81.059115 
L 318.547209 75.821849 
L 320.178639 83.34249 
L 321.810069 81.91085 
L 323.441498 76.691707 
L 325.072928 87.872997 
L 326.704358 81.077237 
L 328.335788 79.428133 
L 329.967218 85.589622 
L 331.598648 80.805407 
L 333.230078 82.925684 
L 334.861508 95.846689 
L 336.492937 86.495723 
L 339.755797 95.611103 
L 341.387227 83.451223 
L 343.018657 80.098648 
L 344.650087 91.533647 
L 346.281517 99.797291 
L 347.912947 61.741034 
L 349.544376 86.513845 
L 351.175806 87.945485 
L 352.807236 82.055827 
L 354.438666 86.658821 
L 356.070096 86.423235 
L 357.701526 79.536865 
L 359.332956 87.583045 
L 360.964386 93.744534 
L 362.595815 83.306246 
L 364.227245 82.092071 
L 365.858675 60.00132 
L 367.490105 96.734668 
L 369.121535 90.246983 
L 370.752965 83.088782 
L 372.384395 60.472492 
L 374.015825 76.582974 
L 375.647254 107.553519 
L 377.278684 80.352356 
L 378.910114 74.299599 
L 380.541544 82.218925 
L 382.172974 68.0475 
L 383.804404 85.970184 
L 385.435834 77.742784 
L 387.067264 84.031127 
L 388.698693 91.461159 
L 390.330123 92.657212 
L 391.961553 88.452902 
L 393.592983 93.309605 
L 395.224413 83.469345 
L 396.855843 87.891119 
L 398.487273 85.535256 
L 398.487273 85.535256 
" style="fill:none;stroke:#ff7f0e;stroke-linecap:square;stroke-width:1.5;"/>
   </g>
   <g id="line2d_18">
    <path clip-path="url(#p9e45980223)" d="M 73.832727 152.115583 
L 398.487273 152.115583 
L 398.487273 152.115583 
" style="fill:none;stroke:#2ca02c;stroke-linecap:square;stroke-width:1.5;"/>
   </g>
   <g id="patch_3">
    <path d="M 57.6 307.584 
L 57.6 41.472 
" style="fill:none;stroke:#000000;stroke-linecap:square;stroke-linejoin:miter;stroke-width:0.8;"/>
   </g>
   <g id="patch_4">
    <path d="M 414.72 307.584 
L 414.72 41.472 
" style="fill:none;stroke:#000000;stroke-linecap:square;stroke-linejoin:miter;stroke-width:0.8;"/>
   </g>
   <g id="patch_5">
    <path d="M 57.6 307.584 
L 414.72 307.584 
" style="fill:none;stroke:#000000;stroke-linecap:square;stroke-linejoin:miter;stroke-width:0.8;"/>
   </g>
   <g id="patch_6">
    <path d="M 57.6 41.472 
L 414.72 41.472 
" style="fill:none;stroke:#000000;stroke-linecap:square;stroke-linejoin:miter;stroke-width:0.8;"/>
   </g>
   <g id="legend_1">
    <g id="patch_7">
     <path d="M 294.57625 302.584 
L 407.72 302.584 
Q 409.72 302.584 409.72 300.584 
L 409.72 256.993375 
Q 409.72 254.993375 407.72 254.993375 
L 294.57625 254.993375 
Q 292.57625 254.993375 292.57625 256.993375 
L 292.57625 300.584 
Q 292.57625 302.584 294.57625 302.584 
z
" style="fill:#ffffff;opacity:0.8;stroke:#cccccc;stroke-linejoin:miter;"/>
    </g>
    <g id="line2d_19">
     <path d="M 296.57625 263.091812 
L 316.57625 263.091812 
" style="fill:none;stroke:#1f77b4;stroke-linecap:square;stroke-width:1.5;"/>
    </g>
    <g id="line2d_20"/>
    <g id="text_18">
     <!-- pop_avg_return -->
     <defs>
      <path d="M 18.109375 8.203125 
L 18.109375 -20.796875 
L 9.078125 -20.796875 
L 9.078125 54.6875 
L 18.109375 54.6875 
L 18.109375 46.390625 
Q 20.953125 51.265625 25.265625 53.625 
Q 29.59375 56 35.59375 56 
Q 45.5625 56 51.78125 48.09375 
Q 58.015625 40.1875 58.015625 27.296875 
Q 58.015625 14.40625 51.78125 6.484375 
Q 45.5625 -1.421875 35.59375 -1.421875 
Q 29.59375 -1.421875 25.265625 0.953125 
Q 20.953125 3.328125 18.109375 8.203125 
z
M 48.6875 27.296875 
Q 48.6875 37.203125 44.609375 42.84375 
Q 40.53125 48.484375 33.40625 48.484375 
Q 26.265625 48.484375 22.1875 42.84375 
Q 18.109375 37.203125 18.109375 27.296875 
Q 18.109375 17.390625 22.1875 11.75 
Q 26.265625 6.109375 33.40625 6.109375 
Q 40.53125 6.109375 44.609375 11.75 
Q 48.6875 17.390625 48.6875 27.296875 
z
" id="DejaVuSans-112"/>
      <path d="M 50.984375 -16.609375 
L 50.984375 -23.578125 
L -0.984375 -23.578125 
L -0.984375 -16.609375 
z
" id="DejaVuSans-95"/>
      <path d="M 2.984375 54.6875 
L 12.5 54.6875 
L 29.59375 8.796875 
L 46.6875 54.6875 
L 56.203125 54.6875 
L 35.6875 0 
L 23.484375 0 
z
" id="DejaVuSans-118"/>
      <path d="M 45.40625 27.984375 
Q 45.40625 37.75 41.375 43.109375 
Q 37.359375 48.484375 30.078125 48.484375 
Q 22.859375 48.484375 18.828125 43.109375 
Q 14.796875 37.75 14.796875 27.984375 
Q 14.796875 18.265625 18.828125 12.890625 
Q 22.859375 7.515625 30.078125 7.515625 
Q 37.359375 7.515625 41.375 12.890625 
Q 45.40625 18.265625 45.40625 27.984375 
z
M 54.390625 6.78125 
Q 54.390625 -7.171875 48.1875 -13.984375 
Q 42 -20.796875 29.203125 -20.796875 
Q 24.46875 -20.796875 20.265625 -20.09375 
Q 16.0625 -19.390625 12.109375 -17.921875 
L 12.109375 -9.1875 
Q 16.0625 -11.328125 19.921875 -12.34375 
Q 23.78125 -13.375 27.78125 -13.375 
Q 36.625 -13.375 41.015625 -8.765625 
Q 45.40625 -4.15625 45.40625 5.171875 
L 45.40625 9.625 
Q 42.625 4.78125 38.28125 2.390625 
Q 33.9375 0 27.875 0 
Q 17.828125 0 11.671875 7.65625 
Q 5.515625 15.328125 5.515625 27.984375 
Q 5.515625 40.671875 11.671875 48.328125 
Q 17.828125 56 27.875 56 
Q 33.9375 56 38.28125 53.609375 
Q 42.625 51.21875 45.40625 46.390625 
L 45.40625 54.6875 
L 54.390625 54.6875 
z
" id="DejaVuSans-103"/>
     </defs>
     <g transform="translate(324.57625 266.591812)scale(0.1 -0.1)">
      <use xlink:href="#DejaVuSans-112"/>
      <use x="63.476562" xlink:href="#DejaVuSans-111"/>
      <use x="124.658203" xlink:href="#DejaVuSans-112"/>
      <use x="188.134766" xlink:href="#DejaVuSans-95"/>
      <use x="238.134766" xlink:href="#DejaVuSans-97"/>
      <use x="299.414062" xlink:href="#DejaVuSans-118"/>
      <use x="358.59375" xlink:href="#DejaVuSans-103"/>
      <use x="422.070312" xlink:href="#DejaVuSans-95"/>
      <use x="472.070312" xlink:href="#DejaVuSans-114"/>
      <use x="513.152344" xlink:href="#DejaVuSans-101"/>
      <use x="574.675781" xlink:href="#DejaVuSans-116"/>
      <use x="613.884766" xlink:href="#DejaVuSans-117"/>
      <use x="677.263672" xlink:href="#DejaVuSans-114"/>
      <use x="718.361328" xlink:href="#DejaVuSans-110"/>
     </g>
    </g>
    <g id="line2d_21">
     <path d="M 296.57625 278.048062 
L 316.57625 278.048062 
" style="fill:none;stroke:#ff7f0e;stroke-linecap:square;stroke-width:1.5;"/>
    </g>
    <g id="line2d_22"/>
    <g id="text_19">
     <!-- elite_avg_return -->
     <defs>
      <path d="M 9.421875 75.984375 
L 18.40625 75.984375 
L 18.40625 0 
L 9.421875 0 
z
" id="DejaVuSans-108"/>
     </defs>
     <g transform="translate(324.57625 281.548062)scale(0.1 -0.1)">
      <use xlink:href="#DejaVuSans-101"/>
      <use x="61.523438" xlink:href="#DejaVuSans-108"/>
      <use x="89.306641" xlink:href="#DejaVuSans-105"/>
      <use x="117.089844" xlink:href="#DejaVuSans-116"/>
      <use x="156.298828" xlink:href="#DejaVuSans-101"/>
      <use x="217.822266" xlink:href="#DejaVuSans-95"/>
      <use x="267.822266" xlink:href="#DejaVuSans-97"/>
      <use x="329.101562" xlink:href="#DejaVuSans-118"/>
      <use x="388.28125" xlink:href="#DejaVuSans-103"/>
      <use x="451.757812" xlink:href="#DejaVuSans-95"/>
      <use x="501.757812" xlink:href="#DejaVuSans-114"/>
      <use x="542.839844" xlink:href="#DejaVuSans-101"/>
      <use x="604.363281" xlink:href="#DejaVuSans-116"/>
      <use x="643.572266" xlink:href="#DejaVuSans-117"/>
      <use x="706.951172" xlink:href="#DejaVuSans-114"/>
      <use x="748.048828" xlink:href="#DejaVuSans-110"/>
     </g>
    </g>
    <g id="line2d_23">
     <path d="M 296.57625 293.004312 
L 316.57625 293.004312 
" style="fill:none;stroke:#2ca02c;stroke-linecap:square;stroke-width:1.5;"/>
    </g>
    <g id="line2d_24"/>
    <g id="text_20">
     <!-- UCB return -->
     <defs>
      <path d="M 8.6875 72.90625 
L 18.609375 72.90625 
L 18.609375 28.609375 
Q 18.609375 16.890625 22.84375 11.734375 
Q 27.09375 6.59375 36.625 6.59375 
Q 46.09375 6.59375 50.34375 11.734375 
Q 54.59375 16.890625 54.59375 28.609375 
L 54.59375 72.90625 
L 64.5 72.90625 
L 64.5 27.390625 
Q 64.5 13.140625 57.4375 5.859375 
Q 50.390625 -1.421875 36.625 -1.421875 
Q 22.796875 -1.421875 15.734375 5.859375 
Q 8.6875 13.140625 8.6875 27.390625 
z
" id="DejaVuSans-85"/>
      <path d="M 64.40625 67.28125 
L 64.40625 56.890625 
Q 59.421875 61.53125 53.78125 63.8125 
Q 48.140625 66.109375 41.796875 66.109375 
Q 29.296875 66.109375 22.65625 58.46875 
Q 16.015625 50.828125 16.015625 36.375 
Q 16.015625 21.96875 22.65625 14.328125 
Q 29.296875 6.6875 41.796875 6.6875 
Q 48.140625 6.6875 53.78125 8.984375 
Q 59.421875 11.28125 64.40625 15.921875 
L 64.40625 5.609375 
Q 59.234375 2.09375 53.4375 0.328125 
Q 47.65625 -1.421875 41.21875 -1.421875 
Q 24.65625 -1.421875 15.125 8.703125 
Q 5.609375 18.84375 5.609375 36.375 
Q 5.609375 53.953125 15.125 64.078125 
Q 24.65625 74.21875 41.21875 74.21875 
Q 47.75 74.21875 53.53125 72.484375 
Q 59.328125 70.75 64.40625 67.28125 
z
" id="DejaVuSans-67"/>
      <path d="M 19.671875 34.8125 
L 19.671875 8.109375 
L 35.5 8.109375 
Q 43.453125 8.109375 47.28125 11.40625 
Q 51.125 14.703125 51.125 21.484375 
Q 51.125 28.328125 47.28125 31.5625 
Q 43.453125 34.8125 35.5 34.8125 
z
M 19.671875 64.796875 
L 19.671875 42.828125 
L 34.28125 42.828125 
Q 41.5 42.828125 45.03125 45.53125 
Q 48.578125 48.25 48.578125 53.8125 
Q 48.578125 59.328125 45.03125 62.0625 
Q 41.5 64.796875 34.28125 64.796875 
z
M 9.8125 72.90625 
L 35.015625 72.90625 
Q 46.296875 72.90625 52.390625 68.21875 
Q 58.5 63.53125 58.5 54.890625 
Q 58.5 48.1875 55.375 44.234375 
Q 52.25 40.28125 46.1875 39.3125 
Q 53.46875 37.75 57.5 32.78125 
Q 61.53125 27.828125 61.53125 20.40625 
Q 61.53125 10.640625 54.890625 5.3125 
Q 48.25 0 35.984375 0 
L 9.8125 0 
z
" id="DejaVuSans-66"/>
      <path id="DejaVuSans-32"/>
     </defs>
     <g transform="translate(324.57625 296.504312)scale(0.1 -0.1)">
      <use xlink:href="#DejaVuSans-85"/>
      <use x="73.193359" xlink:href="#DejaVuSans-67"/>
      <use x="143.017578" xlink:href="#DejaVuSans-66"/>
      <use x="211.621094" xlink:href="#DejaVuSans-32"/>
      <use x="243.408203" xlink:href="#DejaVuSans-114"/>
      <use x="284.490234" xlink:href="#DejaVuSans-101"/>
      <use x="346.013672" xlink:href="#DejaVuSans-116"/>
      <use x="385.222656" xlink:href="#DejaVuSans-117"/>
      <use x="448.601562" xlink:href="#DejaVuSans-114"/>
      <use x="489.699219" xlink:href="#DejaVuSans-110"/>
     </g>
    </g>
   </g>
  </g>
 </g>
 <defs>
  <clipPath id="p9e45980223">
   <rect height="266.112" width="357.12" x="57.6" y="41.472"/>
  </clipPath>
 </defs>
</svg>
