<?xml version="1.0" encoding="utf-8" standalone="no"?>
<!DOCTYPE svg PUBLIC "-//W3C//DTD SVG 1.1//EN"
  "http://www.w3.org/Graphics/SVG/1.1/DTD/svg11.dtd">
<!-- Created with matplotlib (https://matplotlib.org/) -->
<svg height="345.6pt" version="1.1" viewBox="0 0 460.8 345.6" width="460.8pt" xmlns="http://www.w3.org/2000/svg" xmlns:xlink="http://www.w3.org/1999/xlink">
 <defs>
  <style type="text/css">
*{stroke-linecap:butt;stroke-linejoin:round;}
  </style>
 </defs>
 <g id="figure_1">
  <g id="patch_1">
   <path d="M 0 345.6 
L 460.8 345.6 
L 460.8 0 
L 0 0 
z
" style="fill:#ffffff;"/>
  </g>
  <g id="axes_1">
   <g id="patch_2">
    <path d="M 57.6 307.584 
L 414.72 307.584 
L 414.72 41.472 
L 57.6 41.472 
z
" style="fill:#ffffff;"/>
   </g>
   <g id="matplotlib.axis_1">
    <g id="xtick_1">
     <g id="line2d_1">
      <defs>
       <path d="M 0 0 
L 0 3.5 
" id="mf99c44de05" style="stroke:#000000;stroke-width:0.8;"/>
      </defs>
      <g>
       <use style="stroke:#000000;stroke-width:0.8;" x="73.832727" xlink:href="#mf99c44de05" y="307.584"/>
      </g>
     </g>
     <g id="text_1">
      <!-- 0 -->
      <defs>
       <path d="M 31.78125 66.40625 
Q 24.171875 66.40625 20.328125 58.90625 
Q 16.5 51.421875 16.5 36.375 
Q 16.5 21.390625 20.328125 13.890625 
Q 24.171875 6.390625 31.78125 6.390625 
Q 39.453125 6.390625 43.28125 13.890625 
Q 47.125 21.390625 47.125 36.375 
Q 47.125 51.421875 43.28125 58.90625 
Q 39.453125 66.40625 31.78125 66.40625 
z
M 31.78125 74.21875 
Q 44.046875 74.21875 50.515625 64.515625 
Q 56.984375 54.828125 56.984375 36.375 
Q 56.984375 17.96875 50.515625 8.265625 
Q 44.046875 -1.421875 31.78125 -1.421875 
Q 19.53125 -1.421875 13.0625 8.265625 
Q 6.59375 17.96875 6.59375 36.375 
Q 6.59375 54.828125 13.0625 64.515625 
Q 19.53125 74.21875 31.78125 74.21875 
z
" id="DejaVuSans-48"/>
      </defs>
      <g transform="translate(70.651477 322.182437)scale(0.1 -0.1)">
       <use xlink:href="#DejaVuSans-48"/>
      </g>
     </g>
    </g>
    <g id="xtick_2">
     <g id="line2d_2">
      <g>
       <use style="stroke:#000000;stroke-width:0.8;" x="138.893758" xlink:href="#mf99c44de05" y="307.584"/>
      </g>
     </g>
     <g id="text_2">
      <!-- 100 -->
      <defs>
       <path d="M 12.40625 8.296875 
L 28.515625 8.296875 
L 28.515625 63.921875 
L 10.984375 60.40625 
L 10.984375 69.390625 
L 28.421875 72.90625 
L 38.28125 72.90625 
L 38.28125 8.296875 
L 54.390625 8.296875 
L 54.390625 0 
L 12.40625 0 
z
" id="DejaVuSans-49"/>
      </defs>
      <g transform="translate(129.350008 322.182437)scale(0.1 -0.1)">
       <use xlink:href="#DejaVuSans-49"/>
       <use x="63.623047" xlink:href="#DejaVuSans-48"/>
       <use x="127.246094" xlink:href="#DejaVuSans-48"/>
      </g>
     </g>
    </g>
    <g id="xtick_3">
     <g id="line2d_3">
      <g>
       <use style="stroke:#000000;stroke-width:0.8;" x="203.95479" xlink:href="#mf99c44de05" y="307.584"/>
      </g>
     </g>
     <g id="text_3">
      <!-- 200 -->
      <defs>
       <path d="M 19.1875 8.296875 
L 53.609375 8.296875 
L 53.609375 0 
L 7.328125 0 
L 7.328125 8.296875 
Q 12.9375 14.109375 22.625 23.890625 
Q 32.328125 33.6875 34.8125 36.53125 
Q 39.546875 41.84375 41.421875 45.53125 
Q 43.3125 49.21875 43.3125 52.78125 
Q 43.3125 58.59375 39.234375 62.25 
Q 35.15625 65.921875 28.609375 65.921875 
Q 23.96875 65.921875 18.8125 64.3125 
Q 13.671875 62.703125 7.8125 59.421875 
L 7.8125 69.390625 
Q 13.765625 71.78125 18.9375 73 
Q 24.125 74.21875 28.421875 74.21875 
Q 39.75 74.21875 46.484375 68.546875 
Q 53.21875 62.890625 53.21875 53.421875 
Q 53.21875 48.921875 51.53125 44.890625 
Q 49.859375 40.875 45.40625 35.40625 
Q 44.1875 33.984375 37.640625 27.21875 
Q 31.109375 20.453125 19.1875 8.296875 
z
" id="DejaVuSans-50"/>
      </defs>
      <g transform="translate(194.41104 322.182437)scale(0.1 -0.1)">
       <use xlink:href="#DejaVuSans-50"/>
       <use x="63.623047" xlink:href="#DejaVuSans-48"/>
       <use x="127.246094" xlink:href="#DejaVuSans-48"/>
      </g>
     </g>
    </g>
    <g id="xtick_4">
     <g id="line2d_4">
      <g>
       <use style="stroke:#000000;stroke-width:0.8;" x="269.015821" xlink:href="#mf99c44de05" y="307.584"/>
      </g>
     </g>
     <g id="text_4">
      <!-- 300 -->
      <defs>
       <path d="M 40.578125 39.3125 
Q 47.65625 37.796875 51.625 33 
Q 55.609375 28.21875 55.609375 21.1875 
Q 55.609375 10.40625 48.1875 4.484375 
Q 40.765625 -1.421875 27.09375 -1.421875 
Q 22.515625 -1.421875 17.65625 -0.515625 
Q 12.796875 0.390625 7.625 2.203125 
L 7.625 11.71875 
Q 11.71875 9.328125 16.59375 8.109375 
Q 21.484375 6.890625 26.8125 6.890625 
Q 36.078125 6.890625 40.9375 10.546875 
Q 45.796875 14.203125 45.796875 21.1875 
Q 45.796875 27.640625 41.28125 31.265625 
Q 36.765625 34.90625 28.71875 34.90625 
L 20.21875 34.90625 
L 20.21875 43.015625 
L 29.109375 43.015625 
Q 36.375 43.015625 40.234375 45.921875 
Q 44.09375 48.828125 44.09375 54.296875 
Q 44.09375 59.90625 40.109375 62.90625 
Q 36.140625 65.921875 28.71875 65.921875 
Q 24.65625 65.921875 20.015625 65.03125 
Q 15.375 64.15625 9.8125 62.3125 
L 9.8125 71.09375 
Q 15.4375 72.65625 20.34375 73.4375 
Q 25.25 74.21875 29.59375 74.21875 
Q 40.828125 74.21875 47.359375 69.109375 
Q 53.90625 64.015625 53.90625 55.328125 
Q 53.90625 49.265625 50.4375 45.09375 
Q 46.96875 40.921875 40.578125 39.3125 
z
" id="DejaVuSans-51"/>
      </defs>
      <g transform="translate(259.472071 322.182437)scale(0.1 -0.1)">
       <use xlink:href="#DejaVuSans-51"/>
       <use x="63.623047" xlink:href="#DejaVuSans-48"/>
       <use x="127.246094" xlink:href="#DejaVuSans-48"/>
      </g>
     </g>
    </g>
    <g id="xtick_5">
     <g id="line2d_5">
      <g>
       <use style="stroke:#000000;stroke-width:0.8;" x="334.076852" xlink:href="#mf99c44de05" y="307.584"/>
      </g>
     </g>
     <g id="text_5">
      <!-- 400 -->
      <defs>
       <path d="M 37.796875 64.3125 
L 12.890625 25.390625 
L 37.796875 25.390625 
z
M 35.203125 72.90625 
L 47.609375 72.90625 
L 47.609375 25.390625 
L 58.015625 25.390625 
L 58.015625 17.1875 
L 47.609375 17.1875 
L 47.609375 0 
L 37.796875 0 
L 37.796875 17.1875 
L 4.890625 17.1875 
L 4.890625 26.703125 
z
" id="DejaVuSans-52"/>
      </defs>
      <g transform="translate(324.533102 322.182437)scale(0.1 -0.1)">
       <use xlink:href="#DejaVuSans-52"/>
       <use x="63.623047" xlink:href="#DejaVuSans-48"/>
       <use x="127.246094" xlink:href="#DejaVuSans-48"/>
      </g>
     </g>
    </g>
    <g id="xtick_6">
     <g id="line2d_6">
      <g>
       <use style="stroke:#000000;stroke-width:0.8;" x="399.137883" xlink:href="#mf99c44de05" y="307.584"/>
      </g>
     </g>
     <g id="text_6">
      <!-- 500 -->
      <defs>
       <path d="M 10.796875 72.90625 
L 49.515625 72.90625 
L 49.515625 64.59375 
L 19.828125 64.59375 
L 19.828125 46.734375 
Q 21.96875 47.46875 24.109375 47.828125 
Q 26.265625 48.1875 28.421875 48.1875 
Q 40.625 48.1875 47.75 41.5 
Q 54.890625 34.8125 54.890625 23.390625 
Q 54.890625 11.625 47.5625 5.09375 
Q 40.234375 -1.421875 26.90625 -1.421875 
Q 22.3125 -1.421875 17.546875 -0.640625 
Q 12.796875 0.140625 7.71875 1.703125 
L 7.71875 11.625 
Q 12.109375 9.234375 16.796875 8.0625 
Q 21.484375 6.890625 26.703125 6.890625 
Q 35.15625 6.890625 40.078125 11.328125 
Q 45.015625 15.765625 45.015625 23.390625 
Q 45.015625 31 40.078125 35.4375 
Q 35.15625 39.890625 26.703125 39.890625 
Q 22.75 39.890625 18.8125 39.015625 
Q 14.890625 38.140625 10.796875 36.28125 
z
" id="DejaVuSans-53"/>
      </defs>
      <g transform="translate(389.594133 322.182437)scale(0.1 -0.1)">
       <use xlink:href="#DejaVuSans-53"/>
       <use x="63.623047" xlink:href="#DejaVuSans-48"/>
       <use x="127.246094" xlink:href="#DejaVuSans-48"/>
      </g>
     </g>
    </g>
    <g id="text_7">
     <!-- Generations -->
     <defs>
      <path d="M 59.515625 10.40625 
L 59.515625 29.984375 
L 43.40625 29.984375 
L 43.40625 38.09375 
L 69.28125 38.09375 
L 69.28125 6.78125 
Q 63.578125 2.734375 56.6875 0.65625 
Q 49.8125 -1.421875 42 -1.421875 
Q 24.90625 -1.421875 15.25 8.5625 
Q 5.609375 18.5625 5.609375 36.375 
Q 5.609375 54.25 15.25 64.234375 
Q 24.90625 74.21875 42 74.21875 
Q 49.125 74.21875 55.546875 72.453125 
Q 61.96875 70.703125 67.390625 67.28125 
L 67.390625 56.78125 
Q 61.921875 61.421875 55.765625 63.765625 
Q 49.609375 66.109375 42.828125 66.109375 
Q 29.4375 66.109375 22.71875 58.640625 
Q 16.015625 51.171875 16.015625 36.375 
Q 16.015625 21.625 22.71875 14.15625 
Q 29.4375 6.6875 42.828125 6.6875 
Q 48.046875 6.6875 52.140625 7.59375 
Q 56.25 8.5 59.515625 10.40625 
z
" id="DejaVuSans-71"/>
      <path d="M 56.203125 29.59375 
L 56.203125 25.203125 
L 14.890625 25.203125 
Q 15.484375 15.921875 20.484375 11.0625 
Q 25.484375 6.203125 34.421875 6.203125 
Q 39.59375 6.203125 44.453125 7.46875 
Q 49.3125 8.734375 54.109375 11.28125 
L 54.109375 2.78125 
Q 49.265625 0.734375 44.1875 -0.34375 
Q 39.109375 -1.421875 33.890625 -1.421875 
Q 20.796875 -1.421875 13.15625 6.1875 
Q 5.515625 13.8125 5.515625 26.8125 
Q 5.515625 40.234375 12.765625 48.109375 
Q 20.015625 56 32.328125 56 
Q 43.359375 56 49.78125 48.890625 
Q 56.203125 41.796875 56.203125 29.59375 
z
M 47.21875 32.234375 
Q 47.125 39.59375 43.09375 43.984375 
Q 39.0625 48.390625 32.421875 48.390625 
Q 24.90625 48.390625 20.390625 44.140625 
Q 15.875 39.890625 15.1875 32.171875 
z
" id="DejaVuSans-101"/>
      <path d="M 54.890625 33.015625 
L 54.890625 0 
L 45.90625 0 
L 45.90625 32.71875 
Q 45.90625 40.484375 42.875 44.328125 
Q 39.84375 48.1875 33.796875 48.1875 
Q 26.515625 48.1875 22.3125 43.546875 
Q 18.109375 38.921875 18.109375 30.90625 
L 18.109375 0 
L 9.078125 0 
L 9.078125 54.6875 
L 18.109375 54.6875 
L 18.109375 46.1875 
Q 21.34375 51.125 25.703125 53.5625 
Q 30.078125 56 35.796875 56 
Q 45.21875 56 50.046875 50.171875 
Q 54.890625 44.34375 54.890625 33.015625 
z
" id="DejaVuSans-110"/>
      <path d="M 41.109375 46.296875 
Q 39.59375 47.171875 37.8125 47.578125 
Q 36.03125 48 33.890625 48 
Q 26.265625 48 22.1875 43.046875 
Q 18.109375 38.09375 18.109375 28.8125 
L 18.109375 0 
L 9.078125 0 
L 9.078125 54.6875 
L 18.109375 54.6875 
L 18.109375 46.1875 
Q 20.953125 51.171875 25.484375 53.578125 
Q 30.03125 56 36.53125 56 
Q 37.453125 56 38.578125 55.875 
Q 39.703125 55.765625 41.0625 55.515625 
z
" id="DejaVuSans-114"/>
      <path d="M 34.28125 27.484375 
Q 23.390625 27.484375 19.1875 25 
Q 14.984375 22.515625 14.984375 16.5 
Q 14.984375 11.71875 18.140625 8.90625 
Q 21.296875 6.109375 26.703125 6.109375 
Q 34.1875 6.109375 38.703125 11.40625 
Q 43.21875 16.703125 43.21875 25.484375 
L 43.21875 27.484375 
z
M 52.203125 31.203125 
L 52.203125 0 
L 43.21875 0 
L 43.21875 8.296875 
Q 40.140625 3.328125 35.546875 0.953125 
Q 30.953125 -1.421875 24.3125 -1.421875 
Q 15.921875 -1.421875 10.953125 3.296875 
Q 6 8.015625 6 15.921875 
Q 6 25.140625 12.171875 29.828125 
Q 18.359375 34.515625 30.609375 34.515625 
L 43.21875 34.515625 
L 43.21875 35.40625 
Q 43.21875 41.609375 39.140625 45 
Q 35.0625 48.390625 27.6875 48.390625 
Q 23 48.390625 18.546875 47.265625 
Q 14.109375 46.140625 10.015625 43.890625 
L 10.015625 52.203125 
Q 14.9375 54.109375 19.578125 55.046875 
Q 24.21875 56 28.609375 56 
Q 40.484375 56 46.34375 49.84375 
Q 52.203125 43.703125 52.203125 31.203125 
z
" id="DejaVuSans-97"/>
      <path d="M 18.3125 70.21875 
L 18.3125 54.6875 
L 36.8125 54.6875 
L 36.8125 47.703125 
L 18.3125 47.703125 
L 18.3125 18.015625 
Q 18.3125 11.328125 20.140625 9.421875 
Q 21.96875 7.515625 27.59375 7.515625 
L 36.8125 7.515625 
L 36.8125 0 
L 27.59375 0 
Q 17.1875 0 13.234375 3.875 
Q 9.28125 7.765625 9.28125 18.015625 
L 9.28125 47.703125 
L 2.6875 47.703125 
L 2.6875 54.6875 
L 9.28125 54.6875 
L 9.28125 70.21875 
z
" id="DejaVuSans-116"/>
      <path d="M 9.421875 54.6875 
L 18.40625 54.6875 
L 18.40625 0 
L 9.421875 0 
z
M 9.421875 75.984375 
L 18.40625 75.984375 
L 18.40625 64.59375 
L 9.421875 64.59375 
z
" id="DejaVuSans-105"/>
      <path d="M 30.609375 48.390625 
Q 23.390625 48.390625 19.1875 42.75 
Q 14.984375 37.109375 14.984375 27.296875 
Q 14.984375 17.484375 19.15625 11.84375 
Q 23.34375 6.203125 30.609375 6.203125 
Q 37.796875 6.203125 41.984375 11.859375 
Q 46.1875 17.53125 46.1875 27.296875 
Q 46.1875 37.015625 41.984375 42.703125 
Q 37.796875 48.390625 30.609375 48.390625 
z
M 30.609375 56 
Q 42.328125 56 49.015625 48.375 
Q 55.71875 40.765625 55.71875 27.296875 
Q 55.71875 13.875 49.015625 6.21875 
Q 42.328125 -1.421875 30.609375 -1.421875 
Q 18.84375 -1.421875 12.171875 6.21875 
Q 5.515625 13.875 5.515625 27.296875 
Q 5.515625 40.765625 12.171875 48.375 
Q 18.84375 56 30.609375 56 
z
" id="DejaVuSans-111"/>
      <path d="M 44.28125 53.078125 
L 44.28125 44.578125 
Q 40.484375 46.53125 36.375 47.5 
Q 32.28125 48.484375 27.875 48.484375 
Q 21.1875 48.484375 17.84375 46.4375 
Q 14.5 44.390625 14.5 40.28125 
Q 14.5 37.15625 16.890625 35.375 
Q 19.28125 33.59375 26.515625 31.984375 
L 29.59375 31.296875 
Q 39.15625 29.25 43.1875 25.515625 
Q 47.21875 21.78125 47.21875 15.09375 
Q 47.21875 7.46875 41.1875 3.015625 
Q 35.15625 -1.421875 24.609375 -1.421875 
Q 20.21875 -1.421875 15.453125 -0.5625 
Q 10.6875 0.296875 5.421875 2 
L 5.421875 11.28125 
Q 10.40625 8.6875 15.234375 7.390625 
Q 20.0625 6.109375 24.8125 6.109375 
Q 31.15625 6.109375 34.5625 8.28125 
Q 37.984375 10.453125 37.984375 14.40625 
Q 37.984375 18.0625 35.515625 20.015625 
Q 33.0625 21.96875 24.703125 23.78125 
L 21.578125 24.515625 
Q 13.234375 26.265625 9.515625 29.90625 
Q 5.8125 33.546875 5.8125 39.890625 
Q 5.8125 47.609375 11.28125 51.796875 
Q 16.75 56 26.8125 56 
Q 31.78125 56 36.171875 55.265625 
Q 40.578125 54.546875 44.28125 53.078125 
z
" id="DejaVuSans-115"/>
     </defs>
     <g transform="translate(205.662344 335.860562)scale(0.1 -0.1)">
      <use xlink:href="#DejaVuSans-71"/>
      <use x="77.490234" xlink:href="#DejaVuSans-101"/>
      <use x="139.013672" xlink:href="#DejaVuSans-110"/>
      <use x="202.392578" xlink:href="#DejaVuSans-101"/>
      <use x="263.916016" xlink:href="#DejaVuSans-114"/>
      <use x="305.029297" xlink:href="#DejaVuSans-97"/>
      <use x="366.308594" xlink:href="#DejaVuSans-116"/>
      <use x="405.517578" xlink:href="#DejaVuSans-105"/>
      <use x="433.300781" xlink:href="#DejaVuSans-111"/>
      <use x="494.482422" xlink:href="#DejaVuSans-110"/>
      <use x="557.861328" xlink:href="#DejaVuSans-115"/>
     </g>
    </g>
   </g>
   <g id="matplotlib.axis_2">
    <g id="ytick_1">
     <g id="line2d_7">
      <defs>
       <path d="M 0 0 
L -3.5 0 
" id="m2645813bb2" style="stroke:#000000;stroke-width:0.8;"/>
      </defs>
      <g>
       <use style="stroke:#000000;stroke-width:0.8;" x="57.6" xlink:href="#m2645813bb2" y="289.273811"/>
      </g>
     </g>
     <g id="text_8">
      <!-- 0.50 -->
      <defs>
       <path d="M 10.6875 12.40625 
L 21 12.40625 
L 21 0 
L 10.6875 0 
z
" id="DejaVuSans-46"/>
      </defs>
      <g transform="translate(28.334375 293.07303)scale(0.1 -0.1)">
       <use xlink:href="#DejaVuSans-48"/>
       <use x="63.623047" xlink:href="#DejaVuSans-46"/>
       <use x="95.410156" xlink:href="#DejaVuSans-53"/>
       <use x="159.033203" xlink:href="#DejaVuSans-48"/>
      </g>
     </g>
    </g>
    <g id="ytick_2">
     <g id="line2d_8">
      <g>
       <use style="stroke:#000000;stroke-width:0.8;" x="57.6" xlink:href="#m2645813bb2" y="249.612892"/>
      </g>
     </g>
     <g id="text_9">
      <!-- 0.55 -->
      <g transform="translate(28.334375 253.41211)scale(0.1 -0.1)">
       <use xlink:href="#DejaVuSans-48"/>
       <use x="63.623047" xlink:href="#DejaVuSans-46"/>
       <use x="95.410156" xlink:href="#DejaVuSans-53"/>
       <use x="159.033203" xlink:href="#DejaVuSans-53"/>
      </g>
     </g>
    </g>
    <g id="ytick_3">
     <g id="line2d_9">
      <g>
       <use style="stroke:#000000;stroke-width:0.8;" x="57.6" xlink:href="#m2645813bb2" y="209.951972"/>
      </g>
     </g>
     <g id="text_10">
      <!-- 0.60 -->
      <defs>
       <path d="M 33.015625 40.375 
Q 26.375 40.375 22.484375 35.828125 
Q 18.609375 31.296875 18.609375 23.390625 
Q 18.609375 15.53125 22.484375 10.953125 
Q 26.375 6.390625 33.015625 6.390625 
Q 39.65625 6.390625 43.53125 10.953125 
Q 47.40625 15.53125 47.40625 23.390625 
Q 47.40625 31.296875 43.53125 35.828125 
Q 39.65625 40.375 33.015625 40.375 
z
M 52.59375 71.296875 
L 52.59375 62.3125 
Q 48.875 64.0625 45.09375 64.984375 
Q 41.3125 65.921875 37.59375 65.921875 
Q 27.828125 65.921875 22.671875 59.328125 
Q 17.53125 52.734375 16.796875 39.40625 
Q 19.671875 43.65625 24.015625 45.921875 
Q 28.375 48.1875 33.59375 48.1875 
Q 44.578125 48.1875 50.953125 41.515625 
Q 57.328125 34.859375 57.328125 23.390625 
Q 57.328125 12.15625 50.6875 5.359375 
Q 44.046875 -1.421875 33.015625 -1.421875 
Q 20.359375 -1.421875 13.671875 8.265625 
Q 6.984375 17.96875 6.984375 36.375 
Q 6.984375 53.65625 15.1875 63.9375 
Q 23.390625 74.21875 37.203125 74.21875 
Q 40.921875 74.21875 44.703125 73.484375 
Q 48.484375 72.75 52.59375 71.296875 
z
" id="DejaVuSans-54"/>
      </defs>
      <g transform="translate(28.334375 213.751191)scale(0.1 -0.1)">
       <use xlink:href="#DejaVuSans-48"/>
       <use x="63.623047" xlink:href="#DejaVuSans-46"/>
       <use x="95.410156" xlink:href="#DejaVuSans-54"/>
       <use x="159.033203" xlink:href="#DejaVuSans-48"/>
      </g>
     </g>
    </g>
    <g id="ytick_4">
     <g id="line2d_10">
      <g>
       <use style="stroke:#000000;stroke-width:0.8;" x="57.6" xlink:href="#m2645813bb2" y="170.291053"/>
      </g>
     </g>
     <g id="text_11">
      <!-- 0.65 -->
      <g transform="translate(28.334375 174.090272)scale(0.1 -0.1)">
       <use xlink:href="#DejaVuSans-48"/>
       <use x="63.623047" xlink:href="#DejaVuSans-46"/>
       <use x="95.410156" xlink:href="#DejaVuSans-54"/>
       <use x="159.033203" xlink:href="#DejaVuSans-53"/>
      </g>
     </g>
    </g>
    <g id="ytick_5">
     <g id="line2d_11">
      <g>
       <use style="stroke:#000000;stroke-width:0.8;" x="57.6" xlink:href="#m2645813bb2" y="130.630134"/>
      </g>
     </g>
     <g id="text_12">
      <!-- 0.70 -->
      <defs>
       <path d="M 8.203125 72.90625 
L 55.078125 72.90625 
L 55.078125 68.703125 
L 28.609375 0 
L 18.3125 0 
L 43.21875 64.59375 
L 8.203125 64.59375 
z
" id="DejaVuSans-55"/>
      </defs>
      <g transform="translate(28.334375 134.429352)scale(0.1 -0.1)">
       <use xlink:href="#DejaVuSans-48"/>
       <use x="63.623047" xlink:href="#DejaVuSans-46"/>
       <use x="95.410156" xlink:href="#DejaVuSans-55"/>
       <use x="159.033203" xlink:href="#DejaVuSans-48"/>
      </g>
     </g>
    </g>
    <g id="ytick_6">
     <g id="line2d_12">
      <g>
       <use style="stroke:#000000;stroke-width:0.8;" x="57.6" xlink:href="#m2645813bb2" y="90.969214"/>
      </g>
     </g>
     <g id="text_13">
      <!-- 0.75 -->
      <g transform="translate(28.334375 94.768433)scale(0.1 -0.1)">
       <use xlink:href="#DejaVuSans-48"/>
       <use x="63.623047" xlink:href="#DejaVuSans-46"/>
       <use x="95.410156" xlink:href="#DejaVuSans-55"/>
       <use x="159.033203" xlink:href="#DejaVuSans-53"/>
      </g>
     </g>
    </g>
    <g id="ytick_7">
     <g id="line2d_13">
      <g>
       <use style="stroke:#000000;stroke-width:0.8;" x="57.6" xlink:href="#m2645813bb2" y="51.308295"/>
      </g>
     </g>
     <g id="text_14">
      <!-- 0.80 -->
      <defs>
       <path d="M 31.78125 34.625 
Q 24.75 34.625 20.71875 30.859375 
Q 16.703125 27.09375 16.703125 20.515625 
Q 16.703125 13.921875 20.71875 10.15625 
Q 24.75 6.390625 31.78125 6.390625 
Q 38.8125 6.390625 42.859375 10.171875 
Q 46.921875 13.96875 46.921875 20.515625 
Q 46.921875 27.09375 42.890625 30.859375 
Q 38.875 34.625 31.78125 34.625 
z
M 21.921875 38.8125 
Q 15.578125 40.375 12.03125 44.71875 
Q 8.5 49.078125 8.5 55.328125 
Q 8.5 64.0625 14.71875 69.140625 
Q 20.953125 74.21875 31.78125 74.21875 
Q 42.671875 74.21875 48.875 69.140625 
Q 55.078125 64.0625 55.078125 55.328125 
Q 55.078125 49.078125 51.53125 44.71875 
Q 48 40.375 41.703125 38.8125 
Q 48.828125 37.15625 52.796875 32.3125 
Q 56.78125 27.484375 56.78125 20.515625 
Q 56.78125 9.90625 50.3125 4.234375 
Q 43.84375 -1.421875 31.78125 -1.421875 
Q 19.734375 -1.421875 13.25 4.234375 
Q 6.78125 9.90625 6.78125 20.515625 
Q 6.78125 27.484375 10.78125 32.3125 
Q 14.796875 37.15625 21.921875 38.8125 
z
M 18.3125 54.390625 
Q 18.3125 48.734375 21.84375 45.5625 
Q 25.390625 42.390625 31.78125 42.390625 
Q 38.140625 42.390625 41.71875 45.5625 
Q 45.3125 48.734375 45.3125 54.390625 
Q 45.3125 60.0625 41.71875 63.234375 
Q 38.140625 66.40625 31.78125 66.40625 
Q 25.390625 66.40625 21.84375 63.234375 
Q 18.3125 60.0625 18.3125 54.390625 
z
" id="DejaVuSans-56"/>
      </defs>
      <g transform="translate(28.334375 55.107514)scale(0.1 -0.1)">
       <use xlink:href="#DejaVuSans-48"/>
       <use x="63.623047" xlink:href="#DejaVuSans-46"/>
       <use x="95.410156" xlink:href="#DejaVuSans-56"/>
       <use x="159.033203" xlink:href="#DejaVuSans-48"/>
      </g>
     </g>
    </g>
    <g id="text_15">
     <!-- Returns -->
     <defs>
      <path d="M 44.390625 34.1875 
Q 47.5625 33.109375 50.5625 29.59375 
Q 53.5625 26.078125 56.59375 19.921875 
L 66.609375 0 
L 56 0 
L 46.6875 18.703125 
Q 43.0625 26.03125 39.671875 28.421875 
Q 36.28125 30.8125 30.421875 30.8125 
L 19.671875 30.8125 
L 19.671875 0 
L 9.8125 0 
L 9.8125 72.90625 
L 32.078125 72.90625 
Q 44.578125 72.90625 50.734375 67.671875 
Q 56.890625 62.453125 56.890625 51.90625 
Q 56.890625 45.015625 53.6875 40.46875 
Q 50.484375 35.9375 44.390625 34.1875 
z
M 19.671875 64.796875 
L 19.671875 38.921875 
L 32.078125 38.921875 
Q 39.203125 38.921875 42.84375 42.21875 
Q 46.484375 45.515625 46.484375 51.90625 
Q 46.484375 58.296875 42.84375 61.546875 
Q 39.203125 64.796875 32.078125 64.796875 
z
" id="DejaVuSans-82"/>
      <path d="M 8.5 21.578125 
L 8.5 54.6875 
L 17.484375 54.6875 
L 17.484375 21.921875 
Q 17.484375 14.15625 20.5 10.265625 
Q 23.53125 6.390625 29.59375 6.390625 
Q 36.859375 6.390625 41.078125 11.03125 
Q 45.3125 15.671875 45.3125 23.6875 
L 45.3125 54.6875 
L 54.296875 54.6875 
L 54.296875 0 
L 45.3125 0 
L 45.3125 8.40625 
Q 42.046875 3.421875 37.71875 1 
Q 33.40625 -1.421875 27.6875 -1.421875 
Q 18.265625 -1.421875 13.375 4.4375 
Q 8.5 10.296875 8.5 21.578125 
z
M 31.109375 56 
z
" id="DejaVuSans-117"/>
     </defs>
     <g transform="translate(22.254687 194.032688)rotate(-90)scale(0.1 -0.1)">
      <use xlink:href="#DejaVuSans-82"/>
      <use x="69.419922" xlink:href="#DejaVuSans-101"/>
      <use x="130.943359" xlink:href="#DejaVuSans-116"/>
      <use x="170.152344" xlink:href="#DejaVuSans-117"/>
      <use x="233.53125" xlink:href="#DejaVuSans-114"/>
      <use x="274.628906" xlink:href="#DejaVuSans-110"/>
      <use x="338.007812" xlink:href="#DejaVuSans-115"/>
     </g>
    </g>
   </g>
   <g id="line2d_14">
    <path clip-path="url(#pef51daccb6)" d="M 73.832727 295.488 
L 75.133948 292.230001 
L 75.784558 279.236696 
L 77.085779 288.972001 
L 77.736389 286.874809 
L 79.03761 266.653544 
L 79.68822 264.788514 
L 80.33883 261.515037 
L 80.989441 262.343079 
L 81.640051 255.246677 
L 82.290661 265.910628 
L 82.941272 247.918113 
L 83.591882 258.961261 
L 84.242492 255.780648 
L 84.893103 262.931222 
L 85.543713 236.766623 
L 86.194323 248.77711 
L 86.844934 255.2312 
L 87.495544 243.669558 
L 88.146154 228.493936 
L 88.796764 238.11316 
L 89.447375 245.302427 
L 90.097985 236.518984 
L 90.748595 224.616839 
L 91.399206 234.85516 
L 92.049816 214.107663 
L 92.700426 245.735795 
L 93.351037 234.43727 
L 94.001647 229.105294 
L 94.652257 232.363294 
L 95.302868 224.291813 
L 95.953478 232.270429 
L 96.604088 220.987381 
L 97.254698 222.527386 
L 97.905309 217.373401 
L 98.555919 218.843757 
L 99.206529 214.533292 
L 99.85714 207.7387 
L 100.50775 216.599529 
L 101.15836 214.633896 
L 101.808971 215.067264 
L 102.459581 200.348226 
L 103.110191 228.77253 
L 103.760802 199.063599 
L 104.411412 209.410262 
L 105.062022 214.78867 
L 105.712633 202.104914 
L 106.363243 198.080782 
L 107.013853 206.322515 
L 107.664463 221.080246 
L 108.315074 228.493936 
L 108.965684 213.682033 
L 109.616294 211.65449 
L 110.266905 190.357544 
L 110.917515 218.557425 
L 111.568125 219.176522 
L 112.218736 234.506918 
L 112.869346 208.984633 
L 113.519956 191.580261 
L 114.170567 196.703291 
L 114.821177 208.017293 
L 115.471787 204.233061 
L 116.122398 207.91669 
L 116.773008 199.760083 
L 117.423618 198.986212 
L 118.074228 224.291813 
L 119.375449 202.693057 
L 120.026059 195.952635 
L 120.67667 224.771613 
L 121.32728 215.934 
L 121.97789 198.81596 
L 122.628501 214.951183 
L 123.279111 209.433478 
L 123.929721 198.127214 
L 124.580332 206.283821 
L 125.230942 188.059145 
L 125.881552 211.337203 
L 126.532163 187.455525 
L 127.182773 186.10125 
L 127.833383 200.394658 
L 128.483993 200.719684 
L 129.134604 206.260605 
L 130.435824 197.090226 
L 131.086435 203.753261 
L 132.387655 192.392826 
L 133.688876 204.264016 
L 134.339486 208.860813 
L 134.990097 189.529501 
L 135.640707 188.987791 
L 136.291317 194.211424 
L 136.941927 190.62066 
L 137.592538 196.208013 
L 138.243148 176.667755 
L 138.893758 194.033434 
L 139.544369 175.514686 
L 140.194979 174.384834 
L 140.845589 179.360828 
L 141.4962 177.395194 
L 142.14681 177.008258 
L 142.79742 160.996855 
L 143.448031 183.028979 
L 144.098641 163.589325 
L 144.749251 190.388498 
L 145.399862 173.874079 
L 146.050472 174.779508 
L 146.701082 190.744479 
L 147.351692 169.068336 
L 148.002303 167.760493 
L 148.652913 174.972976 
L 149.303523 180.026358 
L 149.954134 180.637716 
L 150.604744 182.378927 
L 151.905965 165.30732 
L 152.556575 168.309942 
L 153.207185 163.364902 
L 153.857796 185.188081 
L 154.508406 180.041835 
L 155.159016 183.129583 
L 155.809627 169.037381 
L 156.460237 180.07279 
L 157.110847 183.624861 
L 157.761457 166.460389 
L 158.412068 168.665923 
L 159.062678 172.434677 
L 159.713288 177.882733 
L 160.363899 170.012459 
L 161.014509 182.657521 
L 161.665119 173.355585 
L 162.31573 171.854274 
L 162.96634 163.666712 
L 163.61695 162.575553 
L 164.267561 158.009711 
L 164.918171 168.557581 
L 165.568781 177.201726 
L 166.219392 180.273997 
L 166.870002 175.623028 
L 167.520612 184.986875 
L 168.171222 176.048658 
L 168.821833 176.319513 
L 169.472443 182.564657 
L 170.123053 183.346267 
L 170.773664 179.538819 
L 171.424274 177.967859 
L 172.074884 164.239377 
L 172.725495 155.401763 
L 173.376105 177.279114 
L 174.026715 176.845745 
L 174.677326 163.450028 
L 175.327936 174.206843 
L 175.978546 171.21196 
L 176.629156 142.919215 
L 177.279767 154.45764 
L 177.930377 168.248032 
L 178.580987 158.79906 
L 179.231598 180.01088 
L 179.882208 175.561119 
L 180.532818 160.857558 
L 181.183429 167.087225 
L 181.834039 154.032011 
L 182.484649 158.961573 
L 183.13526 158.930618 
L 183.78587 162.211834 
L 184.43648 154.086182 
L 185.087091 164.332242 
L 185.737701 165.957372 
L 186.388311 166.731244 
L 187.038921 169.679694 
L 187.689532 162.149924 
L 188.340142 173.711565 
L 188.990752 158.86097 
L 189.641363 157.971017 
L 190.291973 167.164612 
L 190.942583 151.942557 
L 191.593194 155.579754 
L 192.243804 148.444658 
L 192.894414 177.867256 
L 193.545025 154.929702 
L 194.195635 179.577512 
L 194.846245 162.877363 
L 195.496856 172.651361 
L 196.147466 174.261014 
L 196.798076 172.047742 
L 197.448686 171.931661 
L 198.099297 166.468127 
L 198.749907 168.294464 
L 199.400517 174.609257 
L 200.051128 165.725211 
L 200.701738 160.973639 
L 201.352348 149.628681 
L 202.002959 166.909234 
L 202.653569 161.886807 
L 203.304179 160.014038 
L 203.95479 150.093004 
L 205.25601 170.469043 
L 205.906621 178.339318 
L 206.557231 158.845492 
L 207.207841 151.516928 
L 207.858451 170.198188 
L 208.509062 170.708944 
L 209.159672 174.34614 
L 209.810282 170.902412 
L 211.111503 156.879858 
L 211.762113 166.15084 
L 212.412724 163.782793 
L 213.063334 157.096542 
L 213.713944 163.272038 
L 214.364555 168.31768 
L 215.015165 156.593526 
L 215.665775 147.059428 
L 216.316385 159.10087 
L 216.966996 164.626313 
L 217.617606 152.886681 
L 218.268216 178.641128 
L 218.918827 168.008132 
L 219.569437 173.378801 
L 220.220047 177.147555 
L 220.870658 181.775308 
L 221.521268 144.768768 
L 222.171878 169.28502 
L 222.822489 168.124213 
L 223.473099 156.067293 
L 224.123709 161.2058 
L 224.77432 153.118842 
L 225.42493 147.198725 
L 226.07554 150.085266 
L 226.72615 151.331199 
L 227.376761 145.403342 
L 228.027371 141.820317 
L 228.677981 161.020071 
L 229.328592 165.578175 
L 229.979202 147.933903 
L 230.629812 153.73794 
L 231.280423 173.997898 
L 231.931033 163.326209 
L 232.581643 171.846535 
L 233.232254 157.297749 
L 233.882864 154.078443 
L 234.533474 156.198851 
L 235.184085 152.522961 
L 235.834695 158.048404 
L 236.485305 151.400847 
L 237.135915 141.50303 
L 237.786526 147.786867 
L 238.437136 176.040919 
L 239.087746 159.108608 
L 239.738357 155.997645 
L 240.388967 164.417368 
L 241.039577 166.197272 
L 241.690188 171.026231 
L 242.340798 173.340107 
L 242.991408 174.454482 
L 243.642019 164.812042 
L 244.292629 166.723505 
L 244.943239 166.63064 
L 245.59385 169.362407 
L 246.24446 167.567025 
L 246.89507 151.230596 
L 247.54568 173.394278 
L 248.196291 165.647823 
L 249.497511 140.814284 
L 250.148122 153.258139 
L 250.798732 146.409376 
L 251.449342 153.459346 
L 252.099953 149.203052 
L 252.750563 157.754333 
L 253.401173 163.891135 
L 254.051784 145.240829 
L 254.702394 146.556411 
L 255.353004 156.725084 
L 256.003615 159.921174 
L 256.654225 160.958162 
L 257.304835 155.935735 
L 257.955445 137.122916 
L 258.606056 167.814664 
L 259.256666 155.927996 
L 260.557887 166.855063 
L 261.208497 167.628935 
L 261.859107 161.051026 
L 262.509718 160.780171 
L 263.160328 161.499872 
L 263.810938 153.103365 
L 264.461549 166.08893 
L 265.112159 146.099827 
L 265.762769 160.679568 
L 266.413379 165.090636 
L 267.06399 153.931407 
L 267.7146 157.607298 
L 268.36521 150.47994 
L 269.015821 146.850482 
L 269.666431 162.799976 
L 270.317041 138.817695 
L 270.967652 154.124875 
L 271.618262 175.677199 
L 272.268872 158.667502 
L 272.919483 167.265215 
L 273.570093 148.506568 
L 274.220703 153.91593 
L 274.871314 162.977966 
L 275.521924 146.927869 
L 276.172534 142.810873 
L 276.823144 151.338938 
L 277.473755 165.694256 
L 278.124365 157.119758 
L 278.774975 155.556538 
L 279.425586 159.511022 
L 280.076196 156.539355 
L 280.726806 149.079233 
L 281.377417 166.21275 
L 282.028027 151.872909 
L 282.678637 152.786077 
L 283.329248 153.056933 
L 283.979858 154.728495 
L 284.630468 160.764694 
L 285.931689 149.357826 
L 286.582299 131.032547 
L 287.232909 140.164232 
L 287.88352 159.650319 
L 288.53413 148.893503 
L 289.835351 140.527951 
L 290.485961 142.114388 
L 291.136571 150.433508 
L 291.787182 147.995812 
L 292.437792 149.791194 
L 293.088402 150.325166 
L 293.739013 143.693086 
L 294.389623 146.734402 
L 295.040233 155.974428 
L 295.690844 161.701078 
L 296.341454 156.794732 
L 296.992064 136.356783 
L 297.642674 143.940725 
L 298.293285 161.151629 
L 298.943895 159.309815 
L 299.594505 144.304445 
L 300.245116 147.562444 
L 300.895726 151.540144 
L 301.546336 149.411997 
L 302.196947 138.237291 
L 302.847557 142.996602 
L 303.498167 159.913435 
L 304.148778 141.990569 
L 304.799388 137.664626 
L 305.449998 149.39652 
L 306.100608 149.481646 
L 306.751219 145.96053 
L 307.401829 151.555622 
L 308.052439 141.20122 
L 308.70305 147.732696 
L 309.35366 147.461841 
L 310.00427 140.048151 
L 310.654881 150.131698 
L 311.305491 138.864127 
L 311.956101 153.807588 
L 312.606712 166.034759 
L 313.257322 146.896915 
L 313.907932 153.389697 
L 314.558543 151.199641 
L 315.209153 143.631176 
L 315.859763 158.582376 
L 316.510373 152.948591 
L 317.160984 141.348255 
L 317.811594 141.967353 
L 318.462204 140.628555 
L 319.112815 155.750006 
L 319.763425 149.930491 
L 320.414035 161.167107 
L 321.064646 151.099037 
L 321.715256 151.191902 
L 322.365866 135.521002 
L 323.016477 144.041328 
L 323.667087 133.346423 
L 324.317697 157.189407 
L 324.968308 141.959614 
L 325.618918 154.511811 
L 326.269528 148.235712 
L 326.920138 137.231258 
L 327.570749 153.289094 
L 328.871969 127.975754 
L 329.52258 139.21237 
L 330.17319 134.414366 
L 330.8238 140.133277 
L 332.125021 135.799596 
L 332.775631 143.42997 
L 333.426242 144.281229 
L 334.076852 146.076611 
L 334.727462 158.37343 
L 335.378073 157.142975 
L 336.028683 135.892461 
L 336.679293 138.717092 
L 337.329903 138.043824 
L 337.980514 161.283188 
L 339.281734 142.872782 
L 339.932345 137.858094 
L 340.582955 154.140353 
L 341.233565 152.213412 
L 341.884176 152.453313 
L 342.534786 139.746341 
L 343.185396 155.989906 
L 343.836007 149.056016 
L 344.486617 166.491343 
L 345.137227 156.044077 
L 345.787837 157.963278 
L 346.438448 170.221405 
L 347.089058 160.609919 
L 347.739668 166.08893 
L 348.390279 165.082897 
L 349.040889 173.254981 
L 349.691499 161.043287 
L 350.34211 151.780044 
L 350.99272 146.773095 
L 351.64333 158.760366 
L 352.293941 137.231258 
L 352.944551 145.442036 
L 354.245772 158.868708 
L 354.896382 155.827393 
L 355.546992 149.984662 
L 356.197602 154.960657 
L 356.848213 161.08972 
L 357.498823 140.319006 
L 358.149433 152.909897 
L 358.800044 174.439005 
L 359.450654 148.49109 
L 360.101264 152.298538 
L 360.751875 154.635631 
L 361.402485 146.579627 
L 362.053095 155.982167 
L 362.703706 147.663048 
L 363.354316 156.856642 
L 364.004926 169.811253 
L 364.655537 176.660016 
L 365.306147 153.536733 
L 365.956757 158.179963 
L 366.607367 155.951212 
L 367.257978 152.724168 
L 367.908588 158.404385 
L 369.209809 146.417114 
L 369.860419 143.700825 
L 370.511029 153.652814 
L 371.16164 136.913971 
L 371.81225 149.164358 
L 372.46286 154.713018 
L 373.113471 150.456724 
L 373.764081 137.502113 
L 374.414691 141.178004 
L 375.065302 155.432718 
L 375.715912 128.501987 
L 376.366522 142.555495 
L 377.017132 138.709353 
L 377.667743 171.536986 
L 378.318353 138.833173 
L 378.968963 151.160947 
L 379.619574 147.376715 
L 380.920794 157.460262 
L 381.571405 127.859673 
L 382.222015 132.263003 
L 382.872625 159.990822 
L 383.523236 150.897831 
L 384.173846 127.875151 
L 384.824456 138.523624 
L 385.475066 133.098784 
L 386.125677 133.911349 
L 386.776287 145.093794 
L 387.426897 133.044613 
L 388.077508 146.726663 
L 388.728118 138.956992 
L 389.378728 138.361111 
L 390.029339 151.215118 
L 390.679949 150.139437 
L 391.330559 152.809294 
L 391.98117 135.915677 
L 392.63178 145.589072 
L 393.28239 144.706858 
L 393.933001 154.411208 
L 394.583611 133.872656 
L 395.884831 138.260508 
L 396.535442 138.036085 
L 397.186052 150.596021 
L 397.836662 145.921836 
L 398.487273 137.726536 
L 398.487273 137.726536 
" style="fill:none;stroke:#1f77b4;stroke-linecap:square;stroke-width:1.5;"/>
   </g>
   <g id="line2d_15">
    <path clip-path="url(#pef51daccb6)" d="M 73.832727 262.946699 
L 74.483338 264.50992 
L 75.784558 237.424414 
L 76.435169 251.570787 
L 77.085779 248.103842 
L 77.736389 246.37037 
L 78.386999 231.48108 
L 79.03761 207.305331 
L 79.68822 190.930209 
L 80.33883 210.323431 
L 80.989441 212.289065 
L 81.640051 201.238178 
L 82.290661 194.722179 
L 83.591882 148.444658 
L 84.242492 188.608594 
L 84.893103 168.704616 
L 85.543713 158.922879 
L 86.194323 162.962489 
L 86.844934 179.70907 
L 87.495544 171.413167 
L 88.146154 176.660016 
L 88.796764 146.030178 
L 89.447375 176.598107 
L 90.097985 148.104154 
L 90.748595 149.512601 
L 91.399206 136.511558 
L 92.049816 137.873572 
L 92.700426 171.459599 
L 93.351037 115.988483 
L 94.001647 146.014701 
L 94.652257 161.755249 
L 95.953478 152.561655 
L 96.604088 126.900073 
L 97.254698 129.949127 
L 97.905309 130.305108 
L 98.555919 156.400058 
L 99.206529 132.023103 
L 99.85714 121.142468 
L 100.50775 156.152419 
L 101.15836 128.401383 
L 101.808971 114.471695 
L 102.459581 103.59106 
L 103.110191 154.774927 
L 103.760802 119.300653 
L 104.411412 122.690211 
L 105.062022 148.460135 
L 105.712633 122.628301 
L 106.363243 143.120421 
L 107.013853 131.527825 
L 107.664463 133.926827 
L 108.315074 150.952002 
L 108.965684 119.408995 
L 109.616294 118.263666 
L 110.266905 98.003707 
L 110.917515 149.311394 
L 111.568125 140.164232 
L 112.218736 145.72063 
L 112.869346 127.085802 
L 113.519956 122.287798 
L 114.170567 120.7091 
L 114.821177 106.036494 
L 115.471787 135.737686 
L 116.122398 121.838952 
L 116.773008 123.154534 
L 117.423618 124.14509 
L 118.074228 143.290673 
L 118.724839 129.701488 
L 119.375449 96.688125 
L 120.026059 108.435496 
L 120.67667 153.335526 
L 121.32728 109.116503 
L 121.97789 129.128823 
L 122.628501 122.489004 
L 123.279111 118.232711 
L 123.929721 115.059837 
L 124.580332 143.151376 
L 125.230942 117.87673 
L 125.881552 145.039623 
L 126.532163 122.365185 
L 127.182773 106.129359 
L 127.833383 110.555904 
L 128.483993 97.787023 
L 129.134604 124.810619 
L 129.785214 127.952538 
L 130.435824 109.998717 
L 131.086435 124.74871 
L 131.737045 111.020227 
L 132.387655 114.363353 
L 133.038266 107.150869 
L 133.688876 131.001592 
L 134.339486 119.099447 
L 134.990097 130.274153 
L 135.640707 125.553536 
L 136.291317 112.320332 
L 136.941927 116.979039 
L 137.592538 108.65218 
L 138.243148 95.883299 
L 138.893758 107.986651 
L 139.544369 87.479053 
L 140.194979 107.739012 
L 140.845589 109.023639 
L 141.4962 85.668194 
L 142.14681 111.205957 
L 142.79742 86.550407 
L 143.448031 114.394308 
L 144.098641 92.818767 
L 144.749251 107.011573 
L 145.399862 86.581362 
L 146.701082 103.126737 
L 147.351692 81.690494 
L 148.002303 111.438118 
L 148.652913 93.004497 
L 149.303523 102.399298 
L 149.954134 91.007908 
L 150.604744 105.479307 
L 151.255354 101.36231 
L 151.905965 95.69757 
L 152.556575 112.413196 
L 153.207185 113.821643 
L 153.857796 121.328197 
L 154.508406 108.698613 
L 155.159016 101.021806 
L 155.809627 105.556694 
L 156.460237 88.76368 
L 157.110847 112.08817 
L 157.761457 84.832413 
L 158.412068 103.389853 
L 159.062678 94.335556 
L 159.713288 97.106016 
L 160.363899 111.639325 
L 161.014509 89.831623 
L 161.665119 109.704646 
L 162.31573 104.318499 
L 162.96634 75.035198 
L 163.61695 77.325858 
L 164.267561 94.877266 
L 164.918171 86.689704 
L 165.568781 113.17159 
L 166.219392 104.13277 
L 166.870002 106.562727 
L 167.520612 110.94284 
L 168.171222 102.105227 
L 168.821833 95.217769 
L 169.472443 107.754489 
L 170.123053 136.325829 
L 170.773664 97.245313 
L 171.424274 90.682882 
L 172.074884 94.211736 
L 172.725495 83.965676 
L 173.376105 99.783612 
L 174.026715 104.457796 
L 174.677326 80.591596 
L 175.327936 110.540427 
L 175.978546 109.487962 
L 176.629156 87.20046 
L 177.279767 85.002664 
L 177.930377 101.934975 
L 178.580987 85.466987 
L 179.231598 108.776 
L 179.882208 121.405584 
L 180.532818 88.500564 
L 181.183429 91.967509 
L 181.834039 72.388557 
L 182.484649 81.597629 
L 183.13526 101.393265 
L 183.78587 89.630416 
L 184.43648 84.832413 
L 185.087091 105.030461 
L 185.737701 84.631206 
L 186.388311 106.392475 
L 187.038921 78.595007 
L 187.689532 76.010276 
L 188.340142 113.728778 
L 188.990752 88.500564 
L 189.641363 93.391432 
L 190.291973 88.918455 
L 190.942583 87.556441 
L 191.593194 96.502396 
L 192.243804 75.391179 
L 192.894414 98.94783 
L 193.545025 91.007908 
L 194.195635 99.752657 
L 194.846245 104.891164 
L 195.496856 111.515505 
L 196.147466 116.18969 
L 196.798076 111.577415 
L 197.448686 80.049886 
L 198.099297 83.021553 
L 198.749907 113.821643 
L 199.400517 97.523907 
L 200.051128 103.235079 
L 200.701738 90.156649 
L 201.352348 73.719616 
L 202.002959 77.49611 
L 202.653569 88.732725 
L 203.304179 104.163725 
L 203.95479 94.42842 
L 204.6054 80.916622 
L 205.25601 97.508429 
L 205.906621 125.383284 
L 206.557231 96.23928 
L 207.207841 75.406656 
L 207.858451 105.21619 
L 208.509062 97.338178 
L 209.159672 77.852091 
L 209.810282 96.394054 
L 210.460893 101.114671 
L 211.111503 96.394054 
L 211.762113 103.266034 
L 212.412724 86.163472 
L 213.063334 87.61835 
L 213.713944 96.904809 
L 214.364555 112.041738 
L 215.015165 83.253714 
L 215.665775 83.903767 
L 216.966996 105.231668 
L 217.617606 60.950735 
L 218.268216 117.025471 
L 218.918827 91.642483 
L 219.569437 119.362563 
L 220.220047 93.097361 
L 220.870658 91.456753 
L 221.521268 83.64065 
L 222.171878 99.257379 
L 222.822489 94.799879 
L 223.473099 85.405078 
L 224.123709 68.209651 
L 224.77432 76.521032 
L 225.42493 58.010023 
L 226.07554 102.337388 
L 226.72615 76.319825 
L 227.376761 82.386978 
L 228.027371 67.822715 
L 228.677981 88.841067 
L 229.328592 98.622804 
L 229.979202 97.307223 
L 230.629812 81.226171 
L 231.280423 100.805122 
L 231.931033 102.724324 
L 232.581643 105.138803 
L 233.232254 91.967509 
L 233.882864 84.399044 
L 234.533474 89.676849 
L 235.184085 92.230625 
L 235.834695 68.766838 
L 236.485305 90.264991 
L 237.135915 84.971709 
L 237.786526 87.463576 
L 238.437136 73.425545 
L 239.087746 83.346579 
L 239.738357 68.39538 
L 240.388967 98.793056 
L 241.039577 77.573497 
L 241.690188 99.67527 
L 242.340798 91.193637 
L 242.991408 86.47302 
L 243.642019 96.285712 
L 244.292629 78.64144 
L 244.943239 97.492952 
L 245.59385 93.453342 
L 246.89507 72.37308 
L 247.54568 75.932889 
L 248.196291 80.173706 
L 248.846901 85.637239 
L 249.497511 68.147741 
L 250.148122 90.99243 
L 250.798732 90.234036 
L 251.449342 69.014477 
L 252.099953 88.34579 
L 252.750563 91.379366 
L 253.401173 88.051718 
L 254.051784 68.008444 
L 254.702394 64.29386 
L 255.353004 75.329269 
L 256.003615 91.147205 
L 256.654225 77.774704 
L 257.304835 98.52994 
L 257.955445 82.835824 
L 258.606056 104.395887 
L 259.256666 96.548829 
L 259.907276 87.246892 
L 260.557887 100.8206 
L 261.859107 66.089242 
L 262.509718 100.340799 
L 263.160328 71.336092 
L 263.810938 77.294903 
L 264.461549 90.543585 
L 265.112159 77.109174 
L 265.762769 99.67527 
L 266.413379 96.30119 
L 267.06399 98.328733 
L 267.7146 86.627795 
L 268.36521 86.442065 
L 269.015821 78.672395 
L 269.666431 96.579783 
L 270.317041 77.000832 
L 271.618262 89.831623 
L 272.268872 91.038863 
L 272.919483 101.578994 
L 273.570093 85.32769 
L 274.220703 81.969088 
L 274.871314 108.698613 
L 275.521924 86.318246 
L 276.172534 77.852091 
L 276.823144 89.754236 
L 277.473755 108.11047 
L 278.124365 71.459911 
L 278.774975 92.8652 
L 279.425586 97.028629 
L 280.076196 99.582405 
L 280.726806 79.508176 
L 281.377417 70.283626 
L 282.028027 80.947577 
L 282.678637 76.474599 
L 283.329248 73.4565 
L 283.979858 81.458332 
L 284.630468 99.938386 
L 285.281079 66.58452 
L 285.931689 84.290702 
L 286.582299 72.264738 
L 287.232909 76.9544 
L 287.88352 109.116503 
L 288.53413 93.546207 
L 289.18474 98.560895 
L 290.485961 82.773914 
L 291.136571 78.51762 
L 291.787182 72.868358 
L 292.437792 80.638028 
L 293.088402 93.700981 
L 293.739013 72.79097 
L 294.389623 80.313002 
L 295.040233 95.852344 
L 295.690844 95.078472 
L 296.341454 91.410321 
L 296.992064 68.116786 
L 297.642674 82.634617 
L 298.293285 106.144836 
L 298.943895 92.942587 
L 299.594505 65.330848 
L 300.245116 61.476968 
L 300.895726 80.32848 
L 301.546336 88.624383 
L 302.196947 91.874644 
L 302.847557 90.822179 
L 303.498167 98.669237 
L 304.148778 76.22696 
L 304.799388 69.9586 
L 305.449998 84.631206 
L 306.100608 94.412943 
L 306.751219 79.910589 
L 307.401829 104.163725 
L 308.052439 64.882003 
L 308.70305 73.781526 
L 309.35366 88.175538 
L 310.00427 98.112049 
L 310.654881 84.012109 
L 311.305491 62.049633 
L 311.956101 90.682882 
L 312.606712 99.040695 
L 313.257322 93.40691 
L 313.907932 74.617307 
L 314.558543 87.773125 
L 315.209153 90.017352 
L 315.859763 95.418976 
L 316.510373 80.622551 
L 317.160984 99.350244 
L 317.811594 73.007655 
L 318.462204 91.286502 
L 319.112815 80.235615 
L 319.763425 86.225381 
L 320.414035 85.915833 
L 321.064646 54.728807 
L 321.715256 85.99322 
L 322.365866 66.986933 
L 323.016477 68.797793 
L 323.667087 77.4342 
L 324.317697 99.195469 
L 324.968308 81.984565 
L 325.618918 90.063785 
L 326.269528 68.256083 
L 326.920138 84.18236 
L 327.570749 70.376491 
L 328.221359 87.432621 
L 328.871969 80.359435 
L 329.52258 71.723028 
L 330.17319 68.550154 
L 330.8238 83.03703 
L 331.474411 76.737716 
L 332.125021 91.518663 
L 332.775631 81.195216 
L 333.426242 80.26657 
L 334.076852 85.8694 
L 334.727462 64.83557 
L 335.378073 103.544628 
L 336.028683 73.626752 
L 336.679293 77.573497 
L 337.329903 57.220674 
L 337.980514 77.619929 
L 338.631124 77.310381 
L 339.281734 72.930267 
L 339.932345 83.795425 
L 340.582955 83.439444 
L 341.233565 86.829001 
L 341.884176 78.161639 
L 342.534786 82.882256 
L 343.185396 76.304348 
L 343.836007 80.87019 
L 344.486617 106.191269 
L 345.137227 81.53572 
L 346.438448 107.181824 
L 347.089058 101.671858 
L 347.739668 97.167926 
L 348.390279 104.628048 
L 349.040889 97.276268 
L 349.691499 92.447309 
L 350.34211 72.233783 
L 350.99272 79.848679 
L 351.64333 104.720913 
L 352.293941 60.022089 
L 353.595161 99.535973 
L 354.245772 104.643525 
L 354.896382 75.499521 
L 355.546992 95.929731 
L 356.197602 92.308012 
L 356.848213 90.713837 
L 357.498823 82.139339 
L 358.149433 85.962265 
L 358.800044 96.17737 
L 359.450654 89.444687 
L 360.101264 88.299357 
L 360.751875 108.837909 
L 361.402485 87.927899 
L 362.053095 95.929731 
L 362.703706 90.404288 
L 363.354316 90.017352 
L 364.004926 113.728778 
L 364.655537 109.658213 
L 365.306147 90.125694 
L 365.956757 91.472231 
L 366.607367 79.570086 
L 367.257978 97.477474 
L 367.908588 96.951242 
L 368.559198 89.8471 
L 369.209809 78.316414 
L 369.860419 74.385146 
L 370.511029 74.013688 
L 371.16164 79.66295 
L 371.81225 76.304348 
L 372.46286 95.960686 
L 373.113471 73.533887 
L 373.764081 74.493488 
L 374.414691 55.409814 
L 375.065302 80.003454 
L 375.715912 53.568 
L 377.017132 91.503186 
L 377.667743 98.576372 
L 378.318353 83.021553 
L 379.619574 84.956232 
L 380.270184 89.166093 
L 380.920794 96.811945 
L 381.571405 69.571665 
L 382.222015 61.879381 
L 382.872625 102.120704 
L 383.523236 84.399044 
L 384.173846 71.258705 
L 384.824456 94.196259 
L 385.475066 57.112332 
L 386.776287 87.664783 
L 387.426897 76.582941 
L 388.077508 82.712004 
L 388.728118 75.035198 
L 389.378728 73.502932 
L 390.029339 98.52994 
L 391.330559 80.963055 
L 391.98117 65.454668 
L 392.63178 96.8429 
L 393.28239 64.711751 
L 393.933001 76.706761 
L 394.583611 75.592386 
L 395.234221 64.154563 
L 395.884831 62.436569 
L 396.535442 62.885414 
L 397.186052 83.532308 
L 397.836662 82.356023 
L 398.487273 70.391969 
L 398.487273 70.391969 
" style="fill:none;stroke:#ff7f0e;stroke-linecap:square;stroke-width:1.5;"/>
   </g>
   <g id="line2d_16">
    <path clip-path="url(#pef51daccb6)" d="M 73.832727 195.635348 
L 398.487273 195.635348 
L 398.487273 195.635348 
" style="fill:none;stroke:#2ca02c;stroke-linecap:square;stroke-width:1.5;"/>
   </g>
   <g id="patch_3">
    <path d="M 57.6 307.584 
L 57.6 41.472 
" style="fill:none;stroke:#000000;stroke-linecap:square;stroke-linejoin:miter;stroke-width:0.8;"/>
   </g>
   <g id="patch_4">
    <path d="M 414.72 307.584 
L 414.72 41.472 
" style="fill:none;stroke:#000000;stroke-linecap:square;stroke-linejoin:miter;stroke-width:0.8;"/>
   </g>
   <g id="patch_5">
    <path d="M 57.6 307.584 
L 414.72 307.584 
" style="fill:none;stroke:#000000;stroke-linecap:square;stroke-linejoin:miter;stroke-width:0.8;"/>
   </g>
   <g id="patch_6">
    <path d="M 57.6 41.472 
L 414.72 41.472 
" style="fill:none;stroke:#000000;stroke-linecap:square;stroke-linejoin:miter;stroke-width:0.8;"/>
   </g>
   <g id="legend_1">
    <g id="patch_7">
     <path d="M 294.57625 302.584 
L 407.72 302.584 
Q 409.72 302.584 409.72 300.584 
L 409.72 256.993375 
Q 409.72 254.993375 407.72 254.993375 
L 294.57625 254.993375 
Q 292.57625 254.993375 292.57625 256.993375 
L 292.57625 300.584 
Q 292.57625 302.584 294.57625 302.584 
z
" style="fill:#ffffff;opacity:0.8;stroke:#cccccc;stroke-linejoin:miter;"/>
    </g>
    <g id="line2d_17">
     <path d="M 296.57625 263.091812 
L 316.57625 263.091812 
" style="fill:none;stroke:#1f77b4;stroke-linecap:square;stroke-width:1.5;"/>
    </g>
    <g id="line2d_18"/>
    <g id="text_16">
     <!-- pop_avg_return -->
     <defs>
      <path d="M 18.109375 8.203125 
L 18.109375 -20.796875 
L 9.078125 -20.796875 
L 9.078125 54.6875 
L 18.109375 54.6875 
L 18.109375 46.390625 
Q 20.953125 51.265625 25.265625 53.625 
Q 29.59375 56 35.59375 56 
Q 45.5625 56 51.78125 48.09375 
Q 58.015625 40.1875 58.015625 27.296875 
Q 58.015625 14.40625 51.78125 6.484375 
Q 45.5625 -1.421875 35.59375 -1.421875 
Q 29.59375 -1.421875 25.265625 0.953125 
Q 20.953125 3.328125 18.109375 8.203125 
z
M 48.6875 27.296875 
Q 48.6875 37.203125 44.609375 42.84375 
Q 40.53125 48.484375 33.40625 48.484375 
Q 26.265625 48.484375 22.1875 42.84375 
Q 18.109375 37.203125 18.109375 27.296875 
Q 18.109375 17.390625 22.1875 11.75 
Q 26.265625 6.109375 33.40625 6.109375 
Q 40.53125 6.109375 44.609375 11.75 
Q 48.6875 17.390625 48.6875 27.296875 
z
" id="DejaVuSans-112"/>
      <path d="M 50.984375 -16.609375 
L 50.984375 -23.578125 
L -0.984375 -23.578125 
L -0.984375 -16.609375 
z
" id="DejaVuSans-95"/>
      <path d="M 2.984375 54.6875 
L 12.5 54.6875 
L 29.59375 8.796875 
L 46.6875 54.6875 
L 56.203125 54.6875 
L 35.6875 0 
L 23.484375 0 
z
" id="DejaVuSans-118"/>
      <path d="M 45.40625 27.984375 
Q 45.40625 37.75 41.375 43.109375 
Q 37.359375 48.484375 30.078125 48.484375 
Q 22.859375 48.484375 18.828125 43.109375 
Q 14.796875 37.75 14.796875 27.984375 
Q 14.796875 18.265625 18.828125 12.890625 
Q 22.859375 7.515625 30.078125 7.515625 
Q 37.359375 7.515625 41.375 12.890625 
Q 45.40625 18.265625 45.40625 27.984375 
z
M 54.390625 6.78125 
Q 54.390625 -7.171875 48.1875 -13.984375 
Q 42 -20.796875 29.203125 -20.796875 
Q 24.46875 -20.796875 20.265625 -20.09375 
Q 16.0625 -19.390625 12.109375 -17.921875 
L 12.109375 -9.1875 
Q 16.0625 -11.328125 19.921875 -12.34375 
Q 23.78125 -13.375 27.78125 -13.375 
Q 36.625 -13.375 41.015625 -8.765625 
Q 45.40625 -4.15625 45.40625 5.171875 
L 45.40625 9.625 
Q 42.625 4.78125 38.28125 2.390625 
Q 33.9375 0 27.875 0 
Q 17.828125 0 11.671875 7.65625 
Q 5.515625 15.328125 5.515625 27.984375 
Q 5.515625 40.671875 11.671875 48.328125 
Q 17.828125 56 27.875 56 
Q 33.9375 56 38.28125 53.609375 
Q 42.625 51.21875 45.40625 46.390625 
L 45.40625 54.6875 
L 54.390625 54.6875 
z
" id="DejaVuSans-103"/>
     </defs>
     <g transform="translate(324.57625 266.591812)scale(0.1 -0.1)">
      <use xlink:href="#DejaVuSans-112"/>
      <use x="63.476562" xlink:href="#DejaVuSans-111"/>
      <use x="124.658203" xlink:href="#DejaVuSans-112"/>
      <use x="188.134766" xlink:href="#DejaVuSans-95"/>
      <use x="238.134766" xlink:href="#DejaVuSans-97"/>
      <use x="299.414062" xlink:href="#DejaVuSans-118"/>
      <use x="358.59375" xlink:href="#DejaVuSans-103"/>
      <use x="422.070312" xlink:href="#DejaVuSans-95"/>
      <use x="472.070312" xlink:href="#DejaVuSans-114"/>
      <use x="513.152344" xlink:href="#DejaVuSans-101"/>
      <use x="574.675781" xlink:href="#DejaVuSans-116"/>
      <use x="613.884766" xlink:href="#DejaVuSans-117"/>
      <use x="677.263672" xlink:href="#DejaVuSans-114"/>
      <use x="718.361328" xlink:href="#DejaVuSans-110"/>
     </g>
    </g>
    <g id="line2d_19">
     <path d="M 296.57625 278.048062 
L 316.57625 278.048062 
" style="fill:none;stroke:#ff7f0e;stroke-linecap:square;stroke-width:1.5;"/>
    </g>
    <g id="line2d_20"/>
    <g id="text_17">
     <!-- elite_avg_return -->
     <defs>
      <path d="M 9.421875 75.984375 
L 18.40625 75.984375 
L 18.40625 0 
L 9.421875 0 
z
" id="DejaVuSans-108"/>
     </defs>
     <g transform="translate(324.57625 281.548062)scale(0.1 -0.1)">
      <use xlink:href="#DejaVuSans-101"/>
      <use x="61.523438" xlink:href="#DejaVuSans-108"/>
      <use x="89.306641" xlink:href="#DejaVuSans-105"/>
      <use x="117.089844" xlink:href="#DejaVuSans-116"/>
      <use x="156.298828" xlink:href="#DejaVuSans-101"/>
      <use x="217.822266" xlink:href="#DejaVuSans-95"/>
      <use x="267.822266" xlink:href="#DejaVuSans-97"/>
      <use x="329.101562" xlink:href="#DejaVuSans-118"/>
      <use x="388.28125" xlink:href="#DejaVuSans-103"/>
      <use x="451.757812" xlink:href="#DejaVuSans-95"/>
      <use x="501.757812" xlink:href="#DejaVuSans-114"/>
      <use x="542.839844" xlink:href="#DejaVuSans-101"/>
      <use x="604.363281" xlink:href="#DejaVuSans-116"/>
      <use x="643.572266" xlink:href="#DejaVuSans-117"/>
      <use x="706.951172" xlink:href="#DejaVuSans-114"/>
      <use x="748.048828" xlink:href="#DejaVuSans-110"/>
     </g>
    </g>
    <g id="line2d_21">
     <path d="M 296.57625 293.004312 
L 316.57625 293.004312 
" style="fill:none;stroke:#2ca02c;stroke-linecap:square;stroke-width:1.5;"/>
    </g>
    <g id="line2d_22"/>
    <g id="text_18">
     <!-- UCB return -->
     <defs>
      <path d="M 8.6875 72.90625 
L 18.609375 72.90625 
L 18.609375 28.609375 
Q 18.609375 16.890625 22.84375 11.734375 
Q 27.09375 6.59375 36.625 6.59375 
Q 46.09375 6.59375 50.34375 11.734375 
Q 54.59375 16.890625 54.59375 28.609375 
L 54.59375 72.90625 
L 64.5 72.90625 
L 64.5 27.390625 
Q 64.5 13.140625 57.4375 5.859375 
Q 50.390625 -1.421875 36.625 -1.421875 
Q 22.796875 -1.421875 15.734375 5.859375 
Q 8.6875 13.140625 8.6875 27.390625 
z
" id="DejaVuSans-85"/>
      <path d="M 64.40625 67.28125 
L 64.40625 56.890625 
Q 59.421875 61.53125 53.78125 63.8125 
Q 48.140625 66.109375 41.796875 66.109375 
Q 29.296875 66.109375 22.65625 58.46875 
Q 16.015625 50.828125 16.015625 36.375 
Q 16.015625 21.96875 22.65625 14.328125 
Q 29.296875 6.6875 41.796875 6.6875 
Q 48.140625 6.6875 53.78125 8.984375 
Q 59.421875 11.28125 64.40625 15.921875 
L 64.40625 5.609375 
Q 59.234375 2.09375 53.4375 0.328125 
Q 47.65625 -1.421875 41.21875 -1.421875 
Q 24.65625 -1.421875 15.125 8.703125 
Q 5.609375 18.84375 5.609375 36.375 
Q 5.609375 53.953125 15.125 64.078125 
Q 24.65625 74.21875 41.21875 74.21875 
Q 47.75 74.21875 53.53125 72.484375 
Q 59.328125 70.75 64.40625 67.28125 
z
" id="DejaVuSans-67"/>
      <path d="M 19.671875 34.8125 
L 19.671875 8.109375 
L 35.5 8.109375 
Q 43.453125 8.109375 47.28125 11.40625 
Q 51.125 14.703125 51.125 21.484375 
Q 51.125 28.328125 47.28125 31.5625 
Q 43.453125 34.8125 35.5 34.8125 
z
M 19.671875 64.796875 
L 19.671875 42.828125 
L 34.28125 42.828125 
Q 41.5 42.828125 45.03125 45.53125 
Q 48.578125 48.25 48.578125 53.8125 
Q 48.578125 59.328125 45.03125 62.0625 
Q 41.5 64.796875 34.28125 64.796875 
z
M 9.8125 72.90625 
L 35.015625 72.90625 
Q 46.296875 72.90625 52.390625 68.21875 
Q 58.5 63.53125 58.5 54.890625 
Q 58.5 48.1875 55.375 44.234375 
Q 52.25 40.28125 46.1875 39.3125 
Q 53.46875 37.75 57.5 32.78125 
Q 61.53125 27.828125 61.53125 20.40625 
Q 61.53125 10.640625 54.890625 5.3125 
Q 48.25 0 35.984375 0 
L 9.8125 0 
z
" id="DejaVuSans-66"/>
      <path id="DejaVuSans-32"/>
     </defs>
     <g transform="translate(324.57625 296.504312)scale(0.1 -0.1)">
      <use xlink:href="#DejaVuSans-85"/>
      <use x="73.193359" xlink:href="#DejaVuSans-67"/>
      <use x="143.017578" xlink:href="#DejaVuSans-66"/>
      <use x="211.621094" xlink:href="#DejaVuSans-32"/>
      <use x="243.408203" xlink:href="#DejaVuSans-114"/>
      <use x="284.490234" xlink:href="#DejaVuSans-101"/>
      <use x="346.013672" xlink:href="#DejaVuSans-116"/>
      <use x="385.222656" xlink:href="#DejaVuSans-117"/>
      <use x="448.601562" xlink:href="#DejaVuSans-114"/>
      <use x="489.699219" xlink:href="#DejaVuSans-110"/>
     </g>
    </g>
   </g>
  </g>
 </g>
 <defs>
  <clipPath id="pef51daccb6">
   <rect height="266.112" width="357.12" x="57.6" y="41.472"/>
  </clipPath>
 </defs>
</svg>
